<svg width="1024" height="753" viewBox="0 0 1024 753" fill="none" xmlns="http://www.w3.org/2000/svg">
<g opacity="0.2" filter="url(#filter0_f_175_198)">
<ellipse cx="514.5" cy="37" rx="670.5" ry="350" fill="#35875D"/>
</g>
<path d="M35.0349 273C36.5302 273 37.6622 273.63 38.4308 274.891C39.2134 276.138 39.6047 277.953 39.6047 280.336C39.6047 282.719 39.2134 284.541 38.4308 285.802C37.6622 287.063 36.5302 287.693 35.0349 287.693C33.5536 287.693 32.4216 287.063 31.639 285.802C30.8564 284.541 30.4651 282.719 30.4651 280.336C30.4651 277.967 30.8564 276.152 31.639 274.891C32.4216 273.63 33.5536 273 35.0349 273ZM31.9534 280.336C31.9534 282.026 32.1072 283.35 32.4146 284.306L37.0683 275.099C36.5791 274.448 35.9013 274.122 35.0349 274.122C34.0706 274.122 33.316 274.635 32.771 275.66C32.2259 276.672 31.9534 278.23 31.9534 280.336ZM35.0349 286.55C36.0131 286.55 36.7748 286.044 37.3198 285.033C37.8648 284.008 38.1373 282.442 38.1373 280.336C38.1373 278.549 37.9627 277.163 37.6133 276.18L32.9596 285.469C33.4627 286.19 34.1545 286.55 35.0349 286.55Z" fill="url(#paint0_linear_175_198)" fill-opacity="0.6"/>
<path d="M36.2926 310.135H39.3741V311.236H31.3874V310.135H34.9511V298.455L31.5551 300.471L30.9682 299.536L35.1607 296.959H36.2926V310.135Z" fill="url(#paint1_linear_175_198)" fill-opacity="0.6"/>
<path d="M35.0349 320.502C36.5302 320.502 37.6622 321.133 38.4308 322.393C39.2134 323.64 39.6047 325.455 39.6047 327.838C39.6047 330.221 39.2134 332.043 38.4308 333.304C37.6622 334.565 36.5302 335.195 35.0349 335.195C33.5536 335.195 32.4216 334.565 31.639 333.304C30.8564 332.043 30.4651 330.221 30.4651 327.838C30.4651 325.469 30.8564 323.654 31.639 322.393C32.4216 321.133 33.5536 320.502 35.0349 320.502ZM31.9534 327.838C31.9534 329.529 32.1072 330.852 32.4146 331.808L37.0683 322.601C36.5791 321.95 35.9013 321.624 35.0349 321.624C34.0706 321.624 33.316 322.137 32.771 323.162C32.2259 324.174 31.9534 325.732 31.9534 327.838ZM35.0349 334.052C36.0131 334.052 36.7748 333.546 37.3198 332.535C37.8648 331.51 38.1373 329.944 38.1373 327.838C38.1373 326.051 37.9627 324.665 37.6133 323.682L32.9596 332.971C33.4627 333.692 34.1545 334.052 35.0349 334.052Z" fill="url(#paint2_linear_175_198)" fill-opacity="0.6"/>
<path d="M36.2926 357.637H39.3741V358.738H31.3874V357.637H34.9511V345.957L31.5551 347.973L30.9682 347.038L35.1607 344.461H36.2926V357.637Z" fill="url(#paint3_linear_175_198)" fill-opacity="0.6"/>
<path d="M36.2926 381.388H39.3741V382.489H31.3874V381.388H34.9511V369.708L31.5551 371.724L30.9682 370.789L35.1607 368.212H36.2926V381.388Z" fill="url(#paint4_linear_175_198)" fill-opacity="0.6"/>
<path d="M35.0349 391.755C36.5302 391.755 37.6622 392.386 38.4308 393.646C39.2134 394.893 39.6047 396.708 39.6047 399.091C39.6047 401.474 39.2134 403.296 38.4308 404.557C37.6622 405.818 36.5302 406.448 35.0349 406.448C33.5536 406.448 32.4216 405.818 31.639 404.557C30.8564 403.296 30.4651 401.474 30.4651 399.091C30.4651 396.722 30.8564 394.907 31.639 393.646C32.4216 392.386 33.5536 391.755 35.0349 391.755ZM31.9534 399.091C31.9534 400.782 32.1072 402.105 32.4146 403.061L37.0683 393.854C36.5791 393.203 35.9013 392.878 35.0349 392.878C34.0706 392.878 33.316 393.39 32.771 394.415C32.2259 395.427 31.9534 396.985 31.9534 399.091ZM35.0349 405.305C36.0131 405.305 36.7748 404.8 37.3198 403.788C37.8648 402.763 38.1373 401.197 38.1373 399.091C38.1373 397.304 37.9627 395.919 37.6133 394.935L32.9596 404.225C33.4627 404.945 34.1545 405.305 35.0349 405.305Z" fill="url(#paint5_linear_175_198)" fill-opacity="0.6"/>
<path d="M36.2926 428.89H39.3741V429.992H31.3874V428.89H34.9511V417.21L31.5551 419.226L30.9682 418.291L35.1607 415.714H36.2926V428.89Z" fill="url(#paint6_linear_175_198)" fill-opacity="0.6"/>
<path d="M35.0349 439.257C36.5302 439.257 37.6622 439.888 38.4308 441.149C39.2134 442.396 39.6047 444.211 39.6047 446.594C39.6047 448.977 39.2134 450.798 38.4308 452.059C37.6622 453.32 36.5302 453.95 35.0349 453.95C33.5536 453.95 32.4216 453.32 31.639 452.059C30.8564 450.798 30.4651 448.977 30.4651 446.594C30.4651 444.224 30.8564 442.409 31.639 441.149C32.4216 439.888 33.5536 439.257 35.0349 439.257ZM31.9534 446.594C31.9534 448.284 32.1072 449.607 32.4146 450.563L37.0683 441.356C36.5791 440.705 35.9013 440.38 35.0349 440.38C34.0706 440.38 33.316 440.892 32.771 441.918C32.2259 442.929 31.9534 444.488 31.9534 446.594ZM35.0349 452.807C36.0131 452.807 36.7748 452.302 37.3198 451.29C37.8648 450.265 38.1373 448.699 38.1373 446.594C38.1373 444.806 37.9627 443.421 37.6133 442.437L32.9596 451.727C33.4627 452.447 34.1545 452.807 35.0349 452.807Z" fill="url(#paint7_linear_175_198)" fill-opacity="0.6"/>
<path d="M35.0349 463.008C36.5302 463.008 37.6622 463.639 38.4308 464.9C39.2134 466.147 39.6047 467.962 39.6047 470.345C39.6047 472.728 39.2134 474.549 38.4308 475.81C37.6622 477.071 36.5302 477.701 35.0349 477.701C33.5536 477.701 32.4216 477.071 31.639 475.81C30.8564 474.549 30.4651 472.728 30.4651 470.345C30.4651 467.975 30.8564 466.16 31.639 464.9C32.4216 463.639 33.5536 463.008 35.0349 463.008ZM31.9534 470.345C31.9534 472.035 32.1072 473.358 32.4146 474.314L37.0683 465.107C36.5791 464.456 35.9013 464.131 35.0349 464.131C34.0706 464.131 33.316 464.643 32.771 465.669C32.2259 466.68 31.9534 468.239 31.9534 470.345ZM35.0349 476.558C36.0131 476.558 36.7748 476.053 37.3198 475.041C37.8648 474.016 38.1373 472.451 38.1373 470.345C38.1373 468.557 37.9627 467.172 37.6133 466.188L32.9596 475.478C33.4627 476.198 34.1545 476.558 35.0349 476.558Z" fill="url(#paint8_linear_175_198)" fill-opacity="0.6"/>
<path d="M36.2926 500.143H39.3741V501.245H31.3874V500.143H34.9511V488.464L31.5551 490.48L30.9682 489.544L35.1607 486.967H36.2926V500.143Z" fill="url(#paint9_linear_175_198)" fill-opacity="0.6"/>
<path d="M35.0349 510.511C36.5302 510.511 37.6622 511.141 38.4308 512.402C39.2134 513.649 39.6047 515.464 39.6047 517.847C39.6047 520.23 39.2134 522.052 38.4308 523.312C37.6622 524.573 36.5302 525.204 35.0349 525.204C33.5536 525.204 32.4216 524.573 31.639 523.312C30.8564 522.052 30.4651 520.23 30.4651 517.847C30.4651 515.478 30.8564 513.663 31.639 512.402C32.4216 511.141 33.5536 510.511 35.0349 510.511ZM31.9534 517.847C31.9534 519.537 32.1072 520.86 32.4146 521.816L37.0683 512.61C36.5791 511.958 35.9013 511.633 35.0349 511.633C34.0706 511.633 33.316 512.145 32.771 513.171C32.2259 514.182 31.9534 515.741 31.9534 517.847ZM35.0349 524.061C36.0131 524.061 36.7748 523.555 37.3198 522.543C37.8648 521.518 38.1373 519.953 38.1373 517.847C38.1373 516.059 37.9627 514.674 37.6133 513.69L32.9596 522.98C33.4627 523.7 34.1545 524.061 35.0349 524.061Z" fill="url(#paint10_linear_175_198)" fill-opacity="0.6"/>
<path d="M36.2926 547.645H39.3741V548.747H31.3874V547.645H34.9511V535.966L31.5551 537.982L30.9682 537.046L35.1607 534.469H36.2926V547.645Z" fill="url(#paint11_linear_175_198)" fill-opacity="0.6"/>
<path d="M36.2926 571.396H39.3741V572.498H31.3874V571.396H34.9511V559.717L31.5551 561.733L30.9682 560.798L35.1607 558.221H36.2926V571.396Z" fill="url(#paint12_linear_175_198)" fill-opacity="0.6"/>
<path d="M73.9651 320.502C75.4604 320.502 76.5924 321.133 77.361 322.393C78.1436 323.64 78.5349 325.455 78.5349 327.838C78.5349 330.221 78.1436 332.043 77.361 333.304C76.5924 334.565 75.4604 335.195 73.9651 335.195C72.4838 335.195 71.3518 334.565 70.5692 333.304C69.7866 332.043 69.3953 330.221 69.3953 327.838C69.3953 325.469 69.7866 323.654 70.5692 322.393C71.3518 321.133 72.4838 320.502 73.9651 320.502ZM70.8836 327.838C70.8836 329.529 71.0374 330.852 71.3448 331.808L75.9985 322.601C75.5093 321.95 74.8315 321.624 73.9651 321.624C73.0008 321.624 72.2462 322.137 71.7012 323.162C71.1561 324.174 70.8836 325.732 70.8836 327.838ZM73.9651 334.052C74.9433 334.052 75.705 333.546 76.25 332.535C76.795 331.51 77.0675 329.944 77.0675 327.838C77.0675 326.051 76.8928 324.665 76.5435 323.682L71.8898 332.971C72.3929 333.692 73.0847 334.052 73.9651 334.052Z" fill="url(#paint13_linear_175_198)" fill-opacity="0.6"/>
<path d="M75.2228 357.637H78.3043V358.738H70.3176V357.637H73.8812V345.957L70.4853 347.973L69.8984 347.038L74.0909 344.461H75.2228V357.637Z" fill="url(#paint14_linear_175_198)" fill-opacity="0.6"/>
<path d="M73.9651 368.004C75.4604 368.004 76.5924 368.635 77.361 369.895C78.1436 371.142 78.5349 372.957 78.5349 375.34C78.5349 377.723 78.1436 379.545 77.361 380.806C76.5924 382.067 75.4604 382.697 73.9651 382.697C72.4838 382.697 71.3518 382.067 70.5692 380.806C69.7866 379.545 69.3953 377.723 69.3953 375.34C69.3953 372.971 69.7866 371.156 70.5692 369.895C71.3518 368.635 72.4838 368.004 73.9651 368.004ZM70.8836 375.34C70.8836 377.031 71.0374 378.354 71.3448 379.31L75.9985 370.103C75.5093 369.452 74.8315 369.126 73.9651 369.126C73.0008 369.126 72.2462 369.639 71.7012 370.664C71.1561 371.676 70.8836 373.234 70.8836 375.34ZM73.9651 381.554C74.9433 381.554 75.705 381.049 76.25 380.037C76.795 379.012 77.0675 377.446 77.0675 375.34C77.0675 373.553 76.8928 372.168 76.5435 371.184L71.8898 380.474C72.3929 381.194 73.0847 381.554 73.9651 381.554Z" fill="url(#paint15_linear_175_198)" fill-opacity="0.6"/>
<path d="M73.9651 391.755C75.4604 391.755 76.5924 392.386 77.361 393.646C78.1436 394.893 78.5349 396.708 78.5349 399.091C78.5349 401.474 78.1436 403.296 77.361 404.557C76.5924 405.818 75.4604 406.448 73.9651 406.448C72.4838 406.448 71.3518 405.818 70.5692 404.557C69.7866 403.296 69.3953 401.474 69.3953 399.091C69.3953 396.722 69.7866 394.907 70.5692 393.646C71.3518 392.386 72.4838 391.755 73.9651 391.755ZM70.8836 399.091C70.8836 400.782 71.0374 402.105 71.3448 403.061L75.9985 393.854C75.5093 393.203 74.8315 392.878 73.9651 392.878C73.0008 392.878 72.2462 393.39 71.7012 394.415C71.1561 395.427 70.8836 396.985 70.8836 399.091ZM73.9651 405.305C74.9433 405.305 75.705 404.8 76.25 403.788C76.795 402.763 77.0675 401.197 77.0675 399.091C77.0675 397.304 76.8928 395.919 76.5435 394.935L71.8898 404.225C72.3929 404.945 73.0847 405.305 73.9651 405.305Z" fill="url(#paint16_linear_175_198)" fill-opacity="0.6"/>
<path d="M75.2228 428.89H78.3043V429.992H70.3176V428.89H73.8812V417.21L70.4853 419.226L69.8984 418.291L74.0909 415.714H75.2228V428.89Z" fill="url(#paint17_linear_175_198)" fill-opacity="0.6"/>
<path d="M73.9651 439.257C75.4604 439.257 76.5924 439.888 77.361 441.149C78.1436 442.396 78.5349 444.211 78.5349 446.594C78.5349 448.977 78.1436 450.798 77.361 452.059C76.5924 453.32 75.4604 453.95 73.9651 453.95C72.4838 453.95 71.3518 453.32 70.5692 452.059C69.7866 450.798 69.3953 448.977 69.3953 446.594C69.3953 444.224 69.7866 442.409 70.5692 441.149C71.3518 439.888 72.4838 439.257 73.9651 439.257ZM70.8836 446.594C70.8836 448.284 71.0374 449.607 71.3448 450.563L75.9985 441.356C75.5093 440.705 74.8315 440.38 73.9651 440.38C73.0008 440.38 72.2462 440.892 71.7012 441.918C71.1561 442.929 70.8836 444.488 70.8836 446.594ZM73.9651 452.807C74.9433 452.807 75.705 452.302 76.25 451.29C76.795 450.265 77.0675 448.699 77.0675 446.594C77.0675 444.806 76.8928 443.421 76.5435 442.437L71.8898 451.727C72.3929 452.447 73.0847 452.807 73.9651 452.807Z" fill="url(#paint18_linear_175_198)" fill-opacity="0.6"/>
<path d="M75.2228 476.392H78.3043V477.494H70.3176V476.392H73.8812V464.713L70.4853 466.728L69.8984 465.793L74.0909 463.216H75.2228V476.392Z" fill="url(#paint19_linear_175_198)" fill-opacity="0.6"/>
<path d="M73.9651 486.76C75.4604 486.76 76.5924 487.39 77.361 488.651C78.1436 489.898 78.5349 491.713 78.5349 494.096C78.5349 496.479 78.1436 498.301 77.361 499.561C76.5924 500.822 75.4604 501.453 73.9651 501.453C72.4838 501.453 71.3518 500.822 70.5692 499.561C69.7866 498.301 69.3953 496.479 69.3953 494.096C69.3953 491.726 69.7866 489.911 70.5692 488.651C71.3518 487.39 72.4838 486.76 73.9651 486.76ZM70.8836 494.096C70.8836 495.786 71.0374 497.109 71.3448 498.065L75.9985 488.859C75.5093 488.207 74.8315 487.882 73.9651 487.882C73.0008 487.882 72.2462 488.394 71.7012 489.42C71.1561 490.431 70.8836 491.99 70.8836 494.096ZM73.9651 500.31C74.9433 500.31 75.705 499.804 76.25 498.792C76.795 497.767 77.0675 496.202 77.0675 494.096C77.0675 492.308 76.8928 490.923 76.5435 489.939L71.8898 499.229C72.3929 499.949 73.0847 500.31 73.9651 500.31Z" fill="url(#paint20_linear_175_198)" fill-opacity="0.6"/>
<path d="M73.9651 510.511C75.4604 510.511 76.5924 511.141 77.361 512.402C78.1436 513.649 78.5349 515.464 78.5349 517.847C78.5349 520.23 78.1436 522.052 77.361 523.312C76.5924 524.573 75.4604 525.204 73.9651 525.204C72.4838 525.204 71.3518 524.573 70.5692 523.312C69.7866 522.052 69.3953 520.23 69.3953 517.847C69.3953 515.478 69.7866 513.663 70.5692 512.402C71.3518 511.141 72.4838 510.511 73.9651 510.511ZM70.8836 517.847C70.8836 519.537 71.0374 520.86 71.3448 521.816L75.9985 512.61C75.5093 511.958 74.8315 511.633 73.9651 511.633C73.0008 511.633 72.2462 512.145 71.7012 513.171C71.1561 514.182 70.8836 515.741 70.8836 517.847ZM73.9651 524.061C74.9433 524.061 75.705 523.555 76.25 522.543C76.795 521.518 77.0675 519.953 77.0675 517.847C77.0675 516.059 76.8928 514.674 76.5435 513.69L71.8898 522.98C72.3929 523.7 73.0847 524.061 73.9651 524.061Z" fill="url(#paint21_linear_175_198)" fill-opacity="0.6"/>
<path d="M75.2228 547.645H78.3043V548.747H70.3176V547.645H73.8812V535.966L70.4853 537.982L69.8984 537.046L74.0909 534.469H75.2228V547.645Z" fill="url(#paint22_linear_175_198)" fill-opacity="0.6"/>
<path d="M73.9651 558.013C75.4604 558.013 76.5924 558.643 77.361 559.904C78.1436 561.151 78.5349 562.966 78.5349 565.349C78.5349 567.732 78.1436 569.554 77.361 570.815C76.5924 572.075 75.4604 572.706 73.9651 572.706C72.4838 572.706 71.3518 572.075 70.5692 570.815C69.7866 569.554 69.3953 567.732 69.3953 565.349C69.3953 562.98 69.7866 561.165 70.5692 559.904C71.3518 558.643 72.4838 558.013 73.9651 558.013ZM70.8836 565.349C70.8836 567.039 71.0374 568.362 71.3448 569.318L75.9985 560.112C75.5093 559.461 74.8315 559.135 73.9651 559.135C73.0008 559.135 72.2462 559.648 71.7012 560.673C71.1561 561.684 70.8836 563.243 70.8836 565.349ZM73.9651 571.563C74.9433 571.563 75.705 571.057 76.25 570.046C76.795 569.02 77.0675 567.455 77.0675 565.349C77.0675 563.562 76.8928 562.176 76.5435 561.192L71.8898 570.482C72.3929 571.202 73.0847 571.563 73.9651 571.563Z" fill="url(#paint23_linear_175_198)" fill-opacity="0.6"/>
<path d="M75.2228 595.148H78.3043V596.249H70.3176V595.148H73.8812V583.468L70.4853 585.484L69.8984 584.549L74.0909 581.972H75.2228V595.148Z" fill="url(#paint24_linear_175_198)" fill-opacity="0.6"/>
<path d="M75.2228 618.899H78.3043V620H70.3176V618.899H73.8812V607.219L70.4853 609.235L69.8984 608.3L74.0909 605.723H75.2228V618.899Z" fill="url(#paint25_linear_175_198)" fill-opacity="0.6"/>
<path d="M15.5698 344.253C17.0651 344.253 18.1971 344.884 18.9657 346.144C19.7483 347.391 20.1396 349.206 20.1396 351.589C20.1396 353.972 19.7483 355.794 18.9657 357.055C18.1971 358.316 17.0651 358.946 15.5698 358.946C14.0885 358.946 12.9565 358.316 12.1739 357.055C11.3913 355.794 11 353.972 11 351.589C11 349.22 11.3913 347.405 12.1739 346.144C12.9565 344.884 14.0885 344.253 15.5698 344.253ZM12.4883 351.589C12.4883 353.28 12.6421 354.603 12.9495 355.559L17.6032 346.352C17.114 345.701 16.4363 345.375 15.5698 345.375C14.6055 345.375 13.8509 345.888 13.3059 346.913C12.7608 347.925 12.4883 349.483 12.4883 351.589ZM15.5698 357.803C16.5481 357.803 17.3097 357.297 17.8547 356.286C18.3997 355.261 18.6722 353.695 18.6722 351.589C18.6722 349.802 18.4976 348.417 18.1482 347.433L13.4945 356.722C13.9976 357.443 14.6894 357.803 15.5698 357.803Z" fill="url(#paint26_linear_175_198)" fill-opacity="0.6"/>
<path d="M15.5698 368.004C17.0651 368.004 18.1971 368.635 18.9657 369.895C19.7483 371.142 20.1396 372.957 20.1396 375.34C20.1396 377.723 19.7483 379.545 18.9657 380.806C18.1971 382.067 17.0651 382.697 15.5698 382.697C14.0885 382.697 12.9565 382.067 12.1739 380.806C11.3913 379.545 11 377.723 11 375.34C11 372.971 11.3913 371.156 12.1739 369.895C12.9565 368.635 14.0885 368.004 15.5698 368.004ZM12.4883 375.34C12.4883 377.031 12.6421 378.354 12.9495 379.31L17.6032 370.103C17.114 369.452 16.4363 369.126 15.5698 369.126C14.6055 369.126 13.8509 369.639 13.3059 370.664C12.7608 371.676 12.4883 373.234 12.4883 375.34ZM15.5698 381.554C16.5481 381.554 17.3097 381.049 17.8547 380.037C18.3997 379.012 18.6722 377.446 18.6722 375.34C18.6722 373.553 18.4976 372.168 18.1482 371.184L13.4945 380.474C13.9976 381.194 14.6894 381.554 15.5698 381.554Z" fill="url(#paint27_linear_175_198)" fill-opacity="0.6"/>
<path d="M16.8276 405.139H19.909V406.24H11.9223V405.139H15.486V393.459L12.09 395.475L11.5031 394.54L15.6956 391.963H16.8276V405.139Z" fill="url(#paint28_linear_175_198)" fill-opacity="0.6"/>
<path d="M15.5698 415.506C17.0651 415.506 18.1971 416.137 18.9657 417.398C19.7483 418.644 20.1396 420.459 20.1396 422.842C20.1396 425.225 19.7483 427.047 18.9657 428.308C18.1971 429.569 17.0651 430.199 15.5698 430.199C14.0885 430.199 12.9565 429.569 12.1739 428.308C11.3913 427.047 11 425.225 11 422.842C11 420.473 11.3913 418.658 12.1739 417.398C12.9565 416.137 14.0885 415.506 15.5698 415.506ZM12.4883 422.842C12.4883 424.533 12.6421 425.856 12.9495 426.812L17.6032 417.605C17.114 416.954 16.4363 416.629 15.5698 416.629C14.6055 416.629 13.8509 417.141 13.3059 418.166C12.7608 419.178 12.4883 420.737 12.4883 422.842ZM15.5698 429.056C16.5481 429.056 17.3097 428.551 17.8547 427.539C18.3997 426.514 18.6722 424.948 18.6722 422.842C18.6722 421.055 18.4976 419.67 18.1482 418.686L13.4945 427.976C13.9976 428.696 14.6894 429.056 15.5698 429.056Z" fill="url(#paint29_linear_175_198)" fill-opacity="0.6"/>
<path d="M16.8276 452.641H19.909V453.743H11.9223V452.641H15.486V440.962L12.09 442.977L11.5031 442.042L15.6956 439.465H16.8276V452.641Z" fill="url(#paint30_linear_175_198)" fill-opacity="0.6"/>
<path d="M16.8276 476.392H19.909V477.494H11.9223V476.392H15.486V464.713L12.09 466.728L11.5031 465.793L15.6956 463.216H16.8276V476.392Z" fill="url(#paint31_linear_175_198)" fill-opacity="0.6"/>
<path d="M55.7577 310.135H58.8392V311.236H50.8525V310.135H54.4162V298.455L51.0202 300.471L50.4333 299.536L54.6258 296.959H55.7577V310.135Z" fill="url(#paint32_linear_175_198)" fill-opacity="0.6"/>
<path d="M54.5 320.502C55.9953 320.502 57.1273 321.133 57.8959 322.393C58.6785 323.64 59.0698 325.455 59.0698 327.838C59.0698 330.221 58.6785 332.043 57.8959 333.304C57.1273 334.565 55.9953 335.195 54.5 335.195C53.0187 335.195 51.8867 334.565 51.1041 333.304C50.3215 332.043 49.9302 330.221 49.9302 327.838C49.9302 325.469 50.3215 323.654 51.1041 322.393C51.8867 321.133 53.0187 320.502 54.5 320.502ZM51.4185 327.838C51.4185 329.529 51.5723 330.852 51.8797 331.808L56.5334 322.601C56.0442 321.95 55.3664 321.624 54.5 321.624C53.5357 321.624 52.7811 322.137 52.2361 323.162C51.691 324.174 51.4185 325.732 51.4185 327.838ZM54.5 334.052C55.4782 334.052 56.2399 333.546 56.7849 332.535C57.3299 331.51 57.6024 329.944 57.6024 327.838C57.6024 326.051 57.4277 324.665 57.0784 323.682L52.4247 332.971C52.9278 333.692 53.6196 334.052 54.5 334.052Z" fill="url(#paint33_linear_175_198)" fill-opacity="0.6"/>
<path d="M55.7577 357.637H58.8392V358.738H50.8525V357.637H54.4162V345.957L51.0202 347.973L50.4333 347.038L54.6258 344.461H55.7577V357.637Z" fill="url(#paint34_linear_175_198)" fill-opacity="0.6"/>
<path d="M55.7577 381.388H58.8392V382.489H50.8525V381.388H54.4162V369.708L51.0202 371.724L50.4333 370.789L54.6258 368.212H55.7577V381.388Z" fill="url(#paint35_linear_175_198)" fill-opacity="0.6"/>
<path d="M54.5 391.755C55.9953 391.755 57.1273 392.386 57.8959 393.646C58.6785 394.893 59.0698 396.708 59.0698 399.091C59.0698 401.474 58.6785 403.296 57.8959 404.557C57.1273 405.818 55.9953 406.448 54.5 406.448C53.0187 406.448 51.8867 405.818 51.1041 404.557C50.3215 403.296 49.9302 401.474 49.9302 399.091C49.9302 396.722 50.3215 394.907 51.1041 393.646C51.8867 392.386 53.0187 391.755 54.5 391.755ZM51.4185 399.091C51.4185 400.782 51.5723 402.105 51.8797 403.061L56.5334 393.854C56.0442 393.203 55.3664 392.878 54.5 392.878C53.5357 392.878 52.7811 393.39 52.2361 394.415C51.691 395.427 51.4185 396.985 51.4185 399.091ZM54.5 405.305C55.4782 405.305 56.2399 404.8 56.7849 403.788C57.3299 402.763 57.6024 401.197 57.6024 399.091C57.6024 397.304 57.4277 395.919 57.0784 394.935L52.4247 404.225C52.9278 404.945 53.6196 405.305 54.5 405.305Z" fill="url(#paint36_linear_175_198)" fill-opacity="0.6"/>
<path d="M55.7577 428.89H58.8392V429.992H50.8525V428.89H54.4162V417.21L51.0202 419.226L50.4333 418.291L54.6258 415.714H55.7577V428.89Z" fill="url(#paint37_linear_175_198)" fill-opacity="0.6"/>
<path d="M55.7577 452.641H58.8392V453.743H50.8525V452.641H54.4162V440.962L51.0202 442.977L50.4333 442.042L54.6258 439.465H55.7577V452.641Z" fill="url(#paint38_linear_175_198)" fill-opacity="0.6"/>
<path d="M54.5 463.008C55.9953 463.008 57.1273 463.639 57.8959 464.9C58.6785 466.147 59.0698 467.962 59.0698 470.345C59.0698 472.728 58.6785 474.549 57.8959 475.81C57.1273 477.071 55.9953 477.701 54.5 477.701C53.0187 477.701 51.8867 477.071 51.1041 475.81C50.3215 474.549 49.9302 472.728 49.9302 470.345C49.9302 467.975 50.3215 466.16 51.1041 464.9C51.8867 463.639 53.0187 463.008 54.5 463.008ZM51.4185 470.345C51.4185 472.035 51.5723 473.358 51.8797 474.314L56.5334 465.107C56.0442 464.456 55.3664 464.131 54.5 464.131C53.5357 464.131 52.7811 464.643 52.2361 465.669C51.691 466.68 51.4185 468.239 51.4185 470.345ZM54.5 476.558C55.4782 476.558 56.2399 476.053 56.7849 475.041C57.3299 474.016 57.6024 472.451 57.6024 470.345C57.6024 468.557 57.4277 467.172 57.0784 466.188L52.4247 475.478C52.9278 476.198 53.6196 476.558 54.5 476.558Z" fill="url(#paint39_linear_175_198)" fill-opacity="0.6"/>
<path d="M55.7577 500.143H58.8392V501.245H50.8525V500.143H54.4162V488.464L51.0202 490.48L50.4333 489.544L54.6258 486.967H55.7577V500.143Z" fill="url(#paint40_linear_175_198)" fill-opacity="0.6"/>
<path d="M54.5 510.511C55.9953 510.511 57.1273 511.141 57.8959 512.402C58.6785 513.649 59.0698 515.464 59.0698 517.847C59.0698 520.23 58.6785 522.052 57.8959 523.312C57.1273 524.573 55.9953 525.204 54.5 525.204C53.0187 525.204 51.8867 524.573 51.1041 523.312C50.3215 522.052 49.9302 520.23 49.9302 517.847C49.9302 515.478 50.3215 513.663 51.1041 512.402C51.8867 511.141 53.0187 510.511 54.5 510.511ZM51.4185 517.847C51.4185 519.537 51.5723 520.86 51.8797 521.816L56.5334 512.61C56.0442 511.958 55.3664 511.633 54.5 511.633C53.5357 511.633 52.7811 512.145 52.2361 513.171C51.691 514.182 51.4185 515.741 51.4185 517.847ZM54.5 524.061C55.4782 524.061 56.2399 523.555 56.7849 522.543C57.3299 521.518 57.6024 519.953 57.6024 517.847C57.6024 516.059 57.4277 514.674 57.0784 513.69L52.4247 522.98C52.9278 523.7 53.6196 524.061 54.5 524.061Z" fill="url(#paint41_linear_175_198)" fill-opacity="0.6"/>
<path d="M93.4302 296.751C94.9255 296.751 96.0575 297.381 96.8261 298.642C97.6087 299.889 98 301.704 98 304.087C98 306.47 97.6087 308.292 96.8261 309.553C96.0575 310.814 94.9255 311.444 93.4302 311.444C91.9489 311.444 90.8169 310.814 90.0343 309.553C89.2517 308.292 88.8604 306.47 88.8604 304.087C88.8604 301.718 89.2517 299.903 90.0343 298.642C90.8169 297.381 91.9489 296.751 93.4302 296.751ZM90.3487 304.087C90.3487 305.777 90.5024 307.101 90.8099 308.057L95.4636 298.85C94.9744 298.199 94.2966 297.873 93.4302 297.873C92.4659 297.873 91.7113 298.386 91.1663 299.411C90.6212 300.423 90.3487 301.981 90.3487 304.087ZM93.4302 310.301C94.4084 310.301 95.1701 309.795 95.7151 308.784C96.2601 307.759 96.5326 306.193 96.5326 304.087C96.5326 302.3 96.3579 300.914 96.0086 299.931L91.3549 309.22C91.858 309.941 92.5498 310.301 93.4302 310.301Z" fill="url(#paint42_linear_175_198)" fill-opacity="0.6"/>
<path d="M94.6879 333.886H97.7694V334.987H89.7827V333.886H93.3463V322.206L89.9504 324.222L89.3635 323.287L93.556 320.71H94.6879V333.886Z" fill="url(#paint43_linear_175_198)" fill-opacity="0.6"/>
<path d="M94.6879 357.637H97.7694V358.738H89.7827V357.637H93.3463V345.957L89.9504 347.973L89.3635 347.038L93.556 344.461H94.6879V357.637Z" fill="url(#paint44_linear_175_198)" fill-opacity="0.6"/>
<path d="M93.4302 368.004C94.9255 368.004 96.0575 368.635 96.8261 369.895C97.6087 371.142 98 372.957 98 375.34C98 377.723 97.6087 379.545 96.8261 380.806C96.0575 382.067 94.9255 382.697 93.4302 382.697C91.9489 382.697 90.8169 382.067 90.0343 380.806C89.2517 379.545 88.8604 377.723 88.8604 375.34C88.8604 372.971 89.2517 371.156 90.0343 369.895C90.8169 368.635 91.9489 368.004 93.4302 368.004ZM90.3487 375.34C90.3487 377.031 90.5024 378.354 90.8099 379.31L95.4636 370.103C94.9744 369.452 94.2966 369.126 93.4302 369.126C92.4659 369.126 91.7113 369.639 91.1663 370.664C90.6212 371.676 90.3487 373.234 90.3487 375.34ZM93.4302 381.554C94.4084 381.554 95.1701 381.049 95.7151 380.037C96.2601 379.012 96.5326 377.446 96.5326 375.34C96.5326 373.553 96.3579 372.168 96.0086 371.184L91.3549 380.474C91.858 381.194 92.5498 381.554 93.4302 381.554Z" fill="url(#paint45_linear_175_198)" fill-opacity="0.6"/>
<path d="M93.4302 391.755C94.9255 391.755 96.0575 392.386 96.8261 393.646C97.6087 394.893 98 396.708 98 399.091C98 401.474 97.6087 403.296 96.8261 404.557C96.0575 405.818 94.9255 406.448 93.4302 406.448C91.9489 406.448 90.8169 405.818 90.0343 404.557C89.2517 403.296 88.8604 401.474 88.8604 399.091C88.8604 396.722 89.2517 394.907 90.0343 393.646C90.8169 392.386 91.9489 391.755 93.4302 391.755ZM90.3487 399.091C90.3487 400.782 90.5024 402.105 90.8099 403.061L95.4636 393.854C94.9744 393.203 94.2966 392.878 93.4302 392.878C92.4659 392.878 91.7113 393.39 91.1663 394.415C90.6212 395.427 90.3487 396.985 90.3487 399.091ZM93.4302 405.305C94.4084 405.305 95.1701 404.8 95.7151 403.788C96.2601 402.763 96.5326 401.197 96.5326 399.091C96.5326 397.304 96.3579 395.919 96.0086 394.935L91.3549 404.225C91.858 404.945 92.5498 405.305 93.4302 405.305Z" fill="url(#paint46_linear_175_198)" fill-opacity="0.6"/>
<g opacity="0.6">
<path d="M921.93 -27C923.356 -27 924.436 -26.395 925.17 -25.1851C925.916 -23.9885 926.29 -22.2468 926.29 -19.9599C926.29 -17.673 925.916 -15.9246 925.17 -14.7147C924.436 -13.5048 923.356 -12.8998 921.93 -12.8998C920.517 -12.8998 919.437 -13.5048 918.69 -14.7147C917.943 -15.9246 917.57 -17.673 917.57 -19.9599C917.57 -22.2335 917.943 -23.9752 918.69 -25.1851C919.437 -26.395 920.517 -27 921.93 -27ZM918.99 -19.9599C918.99 -18.3378 919.137 -17.068 919.43 -16.1506L923.87 -24.9857C923.403 -25.6106 922.756 -25.923 921.93 -25.923C921.01 -25.923 920.29 -25.4311 919.77 -24.4472C919.25 -23.4766 918.99 -21.9808 918.99 -19.9599ZM921.93 -13.9967C922.863 -13.9967 923.59 -14.482 924.11 -15.4526C924.63 -16.4365 924.89 -17.9389 924.89 -19.9599C924.89 -21.675 924.723 -23.0046 924.39 -23.9486L919.95 -15.0338C920.43 -14.3424 921.09 -13.9967 921.93 -13.9967Z" fill="url(#paint47_linear_175_198)"/>
<path d="M923.13 8.63655H926.07V9.69356H918.45V8.63655H921.85V-2.57181L918.61 -0.637274L918.05 -1.53474L922.05 -4.00776H923.13V8.63655Z" fill="url(#paint48_linear_175_198)"/>
<path d="M921.93 18.5856C923.356 18.5856 924.436 19.1906 925.17 20.4005C925.916 21.5971 926.29 23.3389 926.29 25.6257C926.29 27.9126 925.916 29.661 925.17 30.8709C924.436 32.0808 923.356 32.6858 921.93 32.6858C920.517 32.6858 919.437 32.0808 918.69 30.8709C917.943 29.661 917.57 27.9126 917.57 25.6257C917.57 23.3522 917.943 21.6104 918.69 20.4005C919.437 19.1906 920.517 18.5856 921.93 18.5856ZM918.99 25.6257C918.99 27.2478 919.137 28.5176 919.43 29.435L923.87 20.5999C923.403 19.975 922.756 19.6626 921.93 19.6626C921.01 19.6626 920.29 20.1545 919.77 21.1384C919.25 22.109 918.99 23.6048 918.99 25.6257ZM921.93 31.5889C922.863 31.5889 923.59 31.1036 924.11 30.133C924.63 29.1491 924.89 27.6467 924.89 25.6257C924.89 23.9106 924.723 22.581 924.39 21.637L919.95 30.5518C920.43 31.2432 921.09 31.5889 921.93 31.5889Z" fill="url(#paint49_linear_175_198)"/>
<path d="M923.13 54.2221H926.07V55.2792H918.45V54.2221H921.85V43.0138L918.61 44.9483L918.05 44.0509L922.05 41.5778H923.13V54.2221Z" fill="url(#paint50_linear_175_198)"/>
<path d="M923.13 77.015H926.07V78.072H918.45V77.015H921.85V65.8066L918.61 67.7411L918.05 66.8437L922.05 64.3706H923.13V77.015Z" fill="url(#paint51_linear_175_198)"/>
<path d="M921.93 86.964C923.356 86.964 924.436 87.569 925.17 88.7789C925.916 89.9755 926.29 91.7173 926.29 94.0041C926.29 96.291 925.916 98.0394 925.17 99.2493C924.436 100.459 923.356 101.064 921.93 101.064C920.517 101.064 919.437 100.459 918.69 99.2493C917.943 98.0394 917.57 96.291 917.57 94.0041C917.57 91.7306 917.943 89.9888 918.69 88.7789C919.437 87.569 920.517 86.964 921.93 86.964ZM918.99 94.0041C918.99 95.6262 919.137 96.896 919.43 97.8134L923.87 88.9783C923.403 88.3534 922.756 88.041 921.93 88.041C921.01 88.041 920.29 88.5329 919.77 89.5168C919.25 90.4874 918.99 91.9832 918.99 94.0041ZM921.93 99.9673C922.863 99.9673 923.59 99.482 924.11 98.5114C924.63 97.5275 924.89 96.0251 924.89 94.0041C924.89 92.289 924.723 90.9594 924.39 90.0154L919.95 98.9302C920.43 99.6216 921.09 99.9673 921.93 99.9673Z" fill="url(#paint52_linear_175_198)"/>
<path d="M923.13 122.601H926.07V123.658H918.45V122.601H921.85V111.392L918.61 113.327L918.05 112.429L922.05 109.956H923.13V122.601Z" fill="url(#paint53_linear_175_198)"/>
<path d="M921.93 132.55C923.356 132.55 924.436 133.155 925.17 134.365C925.916 135.561 926.29 137.303 926.29 139.59C926.29 141.877 925.916 143.625 925.17 144.835C924.436 146.045 923.356 146.65 921.93 146.65C920.517 146.65 919.437 146.045 918.69 144.835C917.943 143.625 917.57 141.877 917.57 139.59C917.57 137.316 917.943 135.574 918.69 134.365C919.437 133.155 920.517 132.55 921.93 132.55ZM918.99 139.59C918.99 141.212 919.137 142.482 919.43 143.399L923.87 134.564C923.403 133.939 922.756 133.627 921.93 133.627C921.01 133.627 920.29 134.119 919.77 135.102C919.25 136.073 918.99 137.569 918.99 139.59ZM921.93 145.553C922.863 145.553 923.59 145.068 924.11 144.097C924.63 143.113 924.89 141.611 924.89 139.59C924.89 137.875 924.723 136.545 924.39 135.601L919.95 144.516C920.43 145.207 921.09 145.553 921.93 145.553Z" fill="url(#paint54_linear_175_198)"/>
<path d="M921.93 155.342C923.356 155.342 924.436 155.947 925.17 157.157C925.916 158.354 926.29 160.096 926.29 162.383C926.29 164.669 925.916 166.418 925.17 167.628C924.436 168.838 923.356 169.443 921.93 169.443C920.517 169.443 919.437 168.838 918.69 167.628C917.943 166.418 917.57 164.669 917.57 162.383C917.57 160.109 917.943 158.367 918.69 157.157C919.437 155.947 920.517 155.342 921.93 155.342ZM918.99 162.383C918.99 164.005 919.137 165.274 919.43 166.192L923.87 157.357C923.403 156.732 922.756 156.419 921.93 156.419C921.01 156.419 920.29 156.911 919.77 157.895C919.25 158.866 918.99 160.362 918.99 162.383ZM921.93 168.346C922.863 168.346 923.59 167.86 924.11 166.89C924.63 165.906 924.89 164.404 924.89 162.383C924.89 160.667 924.723 159.338 924.39 158.394L919.95 167.309C920.43 168 921.09 168.346 921.93 168.346Z" fill="url(#paint55_linear_175_198)"/>
<path d="M923.13 190.979H926.07V192.036H918.45V190.979H921.85V179.771L918.61 181.705L918.05 180.808L922.05 178.335H923.13V190.979Z" fill="url(#paint56_linear_175_198)"/>
<path d="M921.93 200.928C923.356 200.928 924.436 201.533 925.17 202.743C925.916 203.94 926.29 205.681 926.29 207.968C926.29 210.255 925.916 212.003 925.17 213.213C924.436 214.423 923.356 215.028 921.93 215.028C920.517 215.028 919.437 214.423 918.69 213.213C917.943 212.003 917.57 210.255 917.57 207.968C917.57 205.695 917.943 203.953 918.69 202.743C919.437 201.533 920.517 200.928 921.93 200.928ZM918.99 207.968C918.99 209.59 919.137 210.86 919.43 211.777L923.87 202.942C923.403 202.317 922.756 202.005 921.93 202.005C921.01 202.005 920.29 202.497 919.77 203.481C919.25 204.451 918.99 205.947 918.99 207.968ZM921.93 213.931C922.863 213.931 923.59 213.446 924.11 212.475C924.63 211.492 924.89 209.989 924.89 207.968C924.89 206.253 924.723 204.923 924.39 203.979L919.95 212.894C920.43 213.586 921.09 213.931 921.93 213.931Z" fill="url(#paint57_linear_175_198)"/>
<path d="M923.13 236.565H926.07V237.622H918.45V236.565H921.85V225.356L918.61 227.291L918.05 226.393L922.05 223.92H923.13V236.565Z" fill="url(#paint58_linear_175_198)"/>
<path d="M923.13 259.357H926.07V260.414H918.45V259.357H921.85V248.149L918.61 250.084L918.05 249.186L922.05 246.713H923.13V259.357Z" fill="url(#paint59_linear_175_198)"/>
<path d="M959.07 18.5856C960.497 18.5856 961.577 19.1906 962.31 20.4005C963.057 21.5971 963.43 23.3389 963.43 25.6257C963.43 27.9126 963.057 29.661 962.31 30.8709C961.577 32.0808 960.497 32.6858 959.07 32.6858C957.657 32.6858 956.577 32.0808 955.83 30.8709C955.084 29.661 954.71 27.9126 954.71 25.6257C954.71 23.3522 955.084 21.6104 955.83 20.4005C956.577 19.1906 957.657 18.5856 959.07 18.5856ZM956.13 25.6257C956.13 27.2478 956.277 28.5176 956.57 29.435L961.01 20.5999C960.543 19.975 959.897 19.6626 959.07 19.6626C958.15 19.6626 957.43 20.1545 956.91 21.1384C956.39 22.109 956.13 23.6048 956.13 25.6257ZM959.07 31.5889C960.003 31.5889 960.73 31.1036 961.25 30.133C961.77 29.1491 962.03 27.6467 962.03 25.6257C962.03 23.9106 961.863 22.581 961.53 21.637L957.09 30.5518C957.57 31.2432 958.23 31.5889 959.07 31.5889Z" fill="url(#paint60_linear_175_198)"/>
<path d="M960.27 54.2221H963.21V55.2792H955.59V54.2221H958.99V43.0138L955.75 44.9483L955.19 44.0509L959.19 41.5778H960.27V54.2221Z" fill="url(#paint61_linear_175_198)"/>
<path d="M959.07 64.1712C960.497 64.1712 961.577 64.7762 962.31 65.9861C963.057 67.1827 963.43 68.9245 963.43 71.2113C963.43 73.4982 963.057 75.2466 962.31 76.4565C961.577 77.6664 960.497 78.2714 959.07 78.2714C957.657 78.2714 956.577 77.6664 955.83 76.4565C955.084 75.2466 954.71 73.4982 954.71 71.2113C954.71 68.9378 955.084 67.196 955.83 65.9861C956.577 64.7762 957.657 64.1712 959.07 64.1712ZM956.13 71.2113C956.13 72.8334 956.277 74.1032 956.57 75.0206L961.01 66.1855C960.543 65.5606 959.897 65.2482 959.07 65.2482C958.15 65.2482 957.43 65.7401 956.91 66.724C956.39 67.6946 956.13 69.1904 956.13 71.2113ZM959.07 77.1745C960.003 77.1745 960.73 76.6892 961.25 75.7186C961.77 74.7347 962.03 73.2323 962.03 71.2113C962.03 69.4962 961.863 68.1666 961.53 67.2226L957.09 76.1374C957.57 76.8288 958.23 77.1745 959.07 77.1745Z" fill="url(#paint62_linear_175_198)"/>
<path d="M959.07 86.964C960.497 86.964 961.577 87.569 962.31 88.7789C963.057 89.9755 963.43 91.7173 963.43 94.0041C963.43 96.291 963.057 98.0394 962.31 99.2493C961.577 100.459 960.497 101.064 959.07 101.064C957.657 101.064 956.577 100.459 955.83 99.2493C955.084 98.0394 954.71 96.291 954.71 94.0041C954.71 91.7306 955.084 89.9888 955.83 88.7789C956.577 87.569 957.657 86.964 959.07 86.964ZM956.13 94.0041C956.13 95.6262 956.277 96.896 956.57 97.8134L961.01 88.9783C960.543 88.3534 959.897 88.041 959.07 88.041C958.15 88.041 957.43 88.5329 956.91 89.5168C956.39 90.4874 956.13 91.9832 956.13 94.0041ZM959.07 99.9673C960.003 99.9673 960.73 99.482 961.25 98.5114C961.77 97.5275 962.03 96.0251 962.03 94.0041C962.03 92.289 961.863 90.9594 961.53 90.0154L957.09 98.9302C957.57 99.6216 958.23 99.9673 959.07 99.9673Z" fill="url(#paint63_linear_175_198)"/>
<path d="M960.27 122.601H963.21V123.658H955.59V122.601H958.99V111.392L955.75 113.327L955.19 112.429L959.19 109.956H960.27V122.601Z" fill="url(#paint64_linear_175_198)"/>
<path d="M959.07 132.55C960.497 132.55 961.577 133.155 962.31 134.365C963.057 135.561 963.43 137.303 963.43 139.59C963.43 141.877 963.057 143.625 962.31 144.835C961.577 146.045 960.497 146.65 959.07 146.65C957.657 146.65 956.577 146.045 955.83 144.835C955.084 143.625 954.71 141.877 954.71 139.59C954.71 137.316 955.084 135.574 955.83 134.365C956.577 133.155 957.657 132.55 959.07 132.55ZM956.13 139.59C956.13 141.212 956.277 142.482 956.57 143.399L961.01 134.564C960.543 133.939 959.897 133.627 959.07 133.627C958.15 133.627 957.43 134.119 956.91 135.102C956.39 136.073 956.13 137.569 956.13 139.59ZM959.07 145.553C960.003 145.553 960.73 145.068 961.25 144.097C961.77 143.113 962.03 141.611 962.03 139.59C962.03 137.875 961.863 136.545 961.53 135.601L957.09 144.516C957.57 145.207 958.23 145.553 959.07 145.553Z" fill="url(#paint65_linear_175_198)"/>
<path d="M960.27 168.186H963.21V169.243H955.59V168.186H958.99V156.978L955.75 158.912L955.19 158.015L959.19 155.542H960.27V168.186Z" fill="url(#paint66_linear_175_198)"/>
<path d="M959.07 178.135C960.497 178.135 961.577 178.74 962.31 179.95C963.057 181.147 963.43 182.888 963.43 185.175C963.43 187.462 963.057 189.211 962.31 190.421C961.577 191.63 960.497 192.235 959.07 192.235C957.657 192.235 956.577 191.63 955.83 190.421C955.084 189.211 954.71 187.462 954.71 185.175C954.71 182.902 955.084 181.16 955.83 179.95C956.577 178.74 957.657 178.135 959.07 178.135ZM956.13 185.175C956.13 186.797 956.277 188.067 956.57 188.985L961.01 180.15C960.543 179.525 959.897 179.212 959.07 179.212C958.15 179.212 957.43 179.704 956.91 180.688C956.39 181.659 956.13 183.154 956.13 185.175ZM959.07 191.139C960.003 191.139 960.73 190.653 961.25 189.683C961.77 188.699 962.03 187.196 962.03 185.175C962.03 183.46 961.863 182.131 961.53 181.187L957.09 190.101C957.57 190.793 958.23 191.139 959.07 191.139Z" fill="url(#paint67_linear_175_198)"/>
<path d="M959.07 200.928C960.497 200.928 961.577 201.533 962.31 202.743C963.057 203.94 963.43 205.681 963.43 207.968C963.43 210.255 963.057 212.003 962.31 213.213C961.577 214.423 960.497 215.028 959.07 215.028C957.657 215.028 956.577 214.423 955.83 213.213C955.084 212.003 954.71 210.255 954.71 207.968C954.71 205.695 955.084 203.953 955.83 202.743C956.577 201.533 957.657 200.928 959.07 200.928ZM956.13 207.968C956.13 209.59 956.277 210.86 956.57 211.777L961.01 202.942C960.543 202.317 959.897 202.005 959.07 202.005C958.15 202.005 957.43 202.497 956.91 203.481C956.39 204.451 956.13 205.947 956.13 207.968ZM959.07 213.931C960.003 213.931 960.73 213.446 961.25 212.475C961.77 211.492 962.03 209.989 962.03 207.968C962.03 206.253 961.863 204.923 961.53 203.979L957.09 212.894C957.57 213.586 958.23 213.931 959.07 213.931Z" fill="url(#paint68_linear_175_198)"/>
<path d="M960.27 236.565H963.21V237.622H955.59V236.565H958.99V225.356L955.75 227.291L955.19 226.393L959.19 223.92H960.27V236.565Z" fill="url(#paint69_linear_175_198)"/>
<path d="M959.07 246.514C960.497 246.514 961.577 247.119 962.31 248.329C963.057 249.525 963.43 251.267 963.43 253.554C963.43 255.841 963.057 257.589 962.31 258.799C961.577 260.009 960.497 260.614 959.07 260.614C957.657 260.614 956.577 260.009 955.83 258.799C955.084 257.589 954.71 255.841 954.71 253.554C954.71 251.28 955.084 249.538 955.83 248.329C956.577 247.119 957.657 246.514 959.07 246.514ZM956.13 253.554C956.13 255.176 956.277 256.446 956.57 257.363L961.01 248.528C960.543 247.903 959.897 247.591 959.07 247.591C958.15 247.591 957.43 248.083 956.91 249.066C956.39 250.037 956.13 251.533 956.13 253.554ZM959.07 259.517C960.003 259.517 960.73 259.032 961.25 258.061C961.77 257.077 962.03 255.575 962.03 253.554C962.03 251.839 961.863 250.509 961.53 249.565L957.09 258.48C957.57 259.171 958.23 259.517 959.07 259.517Z" fill="url(#paint70_linear_175_198)"/>
<path d="M960.27 282.15H963.21V283.207H955.59V282.15H958.99V270.942L955.75 272.876L955.19 271.979L959.19 269.506H960.27V282.15Z" fill="url(#paint71_linear_175_198)"/>
<path d="M960.27 304.943H963.21V306H955.59V304.943H958.99V293.735L955.75 295.669L955.19 294.772L959.19 292.299H960.27V304.943Z" fill="url(#paint72_linear_175_198)"/>
<path d="M903.36 41.3784C904.786 41.3784 905.866 41.9834 906.599 43.1933C907.346 44.3899 907.719 46.1317 907.719 48.4185C907.719 50.7054 907.346 52.4538 906.599 53.6637C905.866 54.8736 904.786 55.4786 903.36 55.4786C901.946 55.4786 900.867 54.8736 900.12 53.6637C899.373 52.4538 899 50.7054 899 48.4185C899 46.145 899.373 44.4032 900.12 43.1933C900.867 41.9834 901.946 41.3784 903.36 41.3784ZM900.42 48.4185C900.42 50.0406 900.567 51.3104 900.86 52.2278L905.3 43.3927C904.833 42.7678 904.186 42.4554 903.36 42.4554C902.44 42.4554 901.72 42.9473 901.2 43.9312C900.68 44.9018 900.42 46.3976 900.42 48.4185ZM903.36 54.3817C904.293 54.3817 905.02 53.8964 905.54 52.9258C906.06 51.9419 906.319 50.4395 906.319 48.4185C906.319 46.7034 906.153 45.3738 905.82 44.4298L901.38 53.3446C901.86 54.036 902.52 54.3817 903.36 54.3817Z" fill="url(#paint73_linear_175_198)"/>
<path d="M903.36 64.1712C904.786 64.1712 905.866 64.7762 906.599 65.9861C907.346 67.1827 907.719 68.9245 907.719 71.2113C907.719 73.4982 907.346 75.2466 906.599 76.4565C905.866 77.6664 904.786 78.2714 903.36 78.2714C901.946 78.2714 900.867 77.6664 900.12 76.4565C899.373 75.2466 899 73.4982 899 71.2113C899 68.9378 899.373 67.196 900.12 65.9861C900.867 64.7762 901.946 64.1712 903.36 64.1712ZM900.42 71.2113C900.42 72.8334 900.567 74.1032 900.86 75.0206L905.3 66.1855C904.833 65.5606 904.186 65.2482 903.36 65.2482C902.44 65.2482 901.72 65.7401 901.2 66.724C900.68 67.6946 900.42 69.1904 900.42 71.2113ZM903.36 77.1745C904.293 77.1745 905.02 76.6892 905.54 75.7186C906.06 74.7347 906.319 73.2323 906.319 71.2113C906.319 69.4962 906.153 68.1666 905.82 67.2226L901.38 76.1374C901.86 76.8288 902.52 77.1745 903.36 77.1745Z" fill="url(#paint74_linear_175_198)"/>
<path d="M904.56 99.8078H907.499V100.865H899.88V99.8078H903.28V88.5994L900.04 90.5339L899.48 89.6365L903.48 87.1635H904.56V99.8078Z" fill="url(#paint75_linear_175_198)"/>
<path d="M903.36 109.757C904.786 109.757 905.866 110.362 906.599 111.572C907.346 112.768 907.719 114.51 907.719 116.797C907.719 119.084 907.346 120.832 906.599 122.042C905.866 123.252 904.786 123.857 903.36 123.857C901.946 123.857 900.867 123.252 900.12 122.042C899.373 120.832 899 119.084 899 116.797C899 114.523 899.373 112.782 900.12 111.572C900.867 110.362 901.946 109.757 903.36 109.757ZM900.42 116.797C900.42 118.419 900.567 119.689 900.86 120.606L905.3 111.771C904.833 111.146 904.186 110.834 903.36 110.834C902.44 110.834 901.72 111.326 901.2 112.31C900.68 113.28 900.42 114.776 900.42 116.797ZM903.36 122.76C904.293 122.76 905.02 122.275 905.54 121.304C906.06 120.32 906.319 118.818 906.319 116.797C906.319 115.082 906.153 113.752 905.82 112.808L901.38 121.723C901.86 122.414 902.52 122.76 903.36 122.76Z" fill="url(#paint76_linear_175_198)"/>
<path d="M904.56 145.393H907.499V146.45H899.88V145.393H903.28V134.185L900.04 136.12L899.48 135.222L903.48 132.749H904.56V145.393Z" fill="url(#paint77_linear_175_198)"/>
<path d="M904.56 168.186H907.499V169.243H899.88V168.186H903.28V156.978L900.04 158.912L899.48 158.015L903.48 155.542H904.56V168.186Z" fill="url(#paint78_linear_175_198)"/>
<path d="M941.7 8.63655H944.64V9.69356H937.02V8.63655H940.42V-2.57181L937.18 -0.637274L936.62 -1.53474L940.62 -4.00776H941.7V8.63655Z" fill="url(#paint79_linear_175_198)"/>
<path d="M940.5 18.5856C941.927 18.5856 943.006 19.1906 943.74 20.4005C944.486 21.5971 944.86 23.3389 944.86 25.6257C944.86 27.9126 944.486 29.661 943.74 30.8709C943.006 32.0808 941.927 32.6858 940.5 32.6858C939.087 32.6858 938.007 32.0808 937.26 30.8709C936.514 29.661 936.14 27.9126 936.14 25.6257C936.14 23.3522 936.514 21.6104 937.26 20.4005C938.007 19.1906 939.087 18.5856 940.5 18.5856ZM937.56 25.6257C937.56 27.2478 937.707 28.5176 938 29.435L942.44 20.5999C941.973 19.975 941.327 19.6626 940.5 19.6626C939.58 19.6626 938.86 20.1545 938.34 21.1384C937.82 22.109 937.56 23.6048 937.56 25.6257ZM940.5 31.5889C941.433 31.5889 942.16 31.1036 942.68 30.133C943.2 29.1491 943.46 27.6467 943.46 25.6257C943.46 23.9106 943.293 22.581 942.96 21.637L938.52 30.5518C939 31.2432 939.66 31.5889 940.5 31.5889Z" fill="url(#paint80_linear_175_198)"/>
<path d="M941.7 54.2221H944.64V55.2792H937.02V54.2221H940.42V43.0138L937.18 44.9483L936.62 44.0509L940.62 41.5778H941.7V54.2221Z" fill="url(#paint81_linear_175_198)"/>
<path d="M941.7 77.015H944.64V78.072H937.02V77.015H940.42V65.8066L937.18 67.7411L936.62 66.8437L940.62 64.3706H941.7V77.015Z" fill="url(#paint82_linear_175_198)"/>
<path d="M940.5 86.964C941.927 86.964 943.006 87.569 943.74 88.7789C944.486 89.9755 944.86 91.7173 944.86 94.0041C944.86 96.291 944.486 98.0394 943.74 99.2493C943.006 100.459 941.927 101.064 940.5 101.064C939.087 101.064 938.007 100.459 937.26 99.2493C936.514 98.0394 936.14 96.291 936.14 94.0041C936.14 91.7306 936.514 89.9888 937.26 88.7789C938.007 87.569 939.087 86.964 940.5 86.964ZM937.56 94.0041C937.56 95.6262 937.707 96.896 938 97.8134L942.44 88.9783C941.973 88.3534 941.327 88.041 940.5 88.041C939.58 88.041 938.86 88.5329 938.34 89.5168C937.82 90.4874 937.56 91.9832 937.56 94.0041ZM940.5 99.9673C941.433 99.9673 942.16 99.482 942.68 98.5114C943.2 97.5275 943.46 96.0251 943.46 94.0041C943.46 92.289 943.293 90.9594 942.96 90.0154L938.52 98.9302C939 99.6216 939.66 99.9673 940.5 99.9673Z" fill="url(#paint83_linear_175_198)"/>
<path d="M941.7 122.601H944.64V123.658H937.02V122.601H940.42V111.392L937.18 113.327L936.62 112.429L940.62 109.956H941.7V122.601Z" fill="url(#paint84_linear_175_198)"/>
<path d="M941.7 145.393H944.64V146.45H937.02V145.393H940.42V134.185L937.18 136.12L936.62 135.222L940.62 132.749H941.7V145.393Z" fill="url(#paint85_linear_175_198)"/>
<path d="M940.5 155.342C941.927 155.342 943.006 155.947 943.74 157.157C944.486 158.354 944.86 160.096 944.86 162.383C944.86 164.669 944.486 166.418 943.74 167.628C943.006 168.838 941.927 169.443 940.5 169.443C939.087 169.443 938.007 168.838 937.26 167.628C936.514 166.418 936.14 164.669 936.14 162.383C936.14 160.109 936.514 158.367 937.26 157.157C938.007 155.947 939.087 155.342 940.5 155.342ZM937.56 162.383C937.56 164.005 937.707 165.274 938 166.192L942.44 157.357C941.973 156.732 941.327 156.419 940.5 156.419C939.58 156.419 938.86 156.911 938.34 157.895C937.82 158.866 937.56 160.362 937.56 162.383ZM940.5 168.346C941.433 168.346 942.16 167.86 942.68 166.89C943.2 165.906 943.46 164.404 943.46 162.383C943.46 160.667 943.293 159.338 942.96 158.394L938.52 167.309C939 168 939.66 168.346 940.5 168.346Z" fill="url(#paint86_linear_175_198)"/>
<path d="M941.7 190.979H944.64V192.036H937.02V190.979H940.42V179.771L937.18 181.705L936.62 180.808L940.62 178.335H941.7V190.979Z" fill="url(#paint87_linear_175_198)"/>
<path d="M940.5 200.928C941.927 200.928 943.006 201.533 943.74 202.743C944.486 203.94 944.86 205.681 944.86 207.968C944.86 210.255 944.486 212.003 943.74 213.213C943.006 214.423 941.927 215.028 940.5 215.028C939.087 215.028 938.007 214.423 937.26 213.213C936.514 212.003 936.14 210.255 936.14 207.968C936.14 205.695 936.514 203.953 937.26 202.743C938.007 201.533 939.087 200.928 940.5 200.928ZM937.56 207.968C937.56 209.59 937.707 210.86 938 211.777L942.44 202.942C941.973 202.317 941.327 202.005 940.5 202.005C939.58 202.005 938.86 202.497 938.34 203.481C937.82 204.451 937.56 205.947 937.56 207.968ZM940.5 213.931C941.433 213.931 942.16 213.446 942.68 212.475C943.2 211.492 943.46 209.989 943.46 207.968C943.46 206.253 943.293 204.923 942.96 203.979L938.52 212.894C939 213.586 939.66 213.931 940.5 213.931Z" fill="url(#paint88_linear_175_198)"/>
<path d="M977.64 -4.2072C979.067 -4.2072 980.147 -3.60224 980.88 -2.39232C981.627 -1.1957 982 0.54605 982 2.83293C982 5.11981 981.627 6.86821 980.88 8.07812C980.147 9.28804 979.067 9.893 977.64 9.893C976.227 9.893 975.147 9.28804 974.401 8.07812C973.654 6.86821 973.281 5.11981 973.281 2.83293C973.281 0.559346 973.654 -1.1824 974.401 -2.39232C975.147 -3.60224 976.227 -4.2072 977.64 -4.2072ZM974.7 2.83293C974.7 4.45502 974.847 5.72477 975.14 6.64218L979.58 -2.19288C979.114 -2.81779 978.467 -3.13024 977.64 -3.13024C976.72 -3.13024 976 -2.63829 975.48 -1.6544C974.96 -0.683811 974.7 0.811966 974.7 2.83293ZM977.64 8.7961C978.574 8.7961 979.3 8.3108 979.82 7.34021C980.34 6.35632 980.6 4.85389 980.6 2.83293C980.6 1.11777 980.433 -0.21181 980.1 -1.15581L975.66 7.75902C976.14 8.4504 976.8 8.7961 977.64 8.7961Z" fill="url(#paint89_linear_175_198)"/>
<path d="M978.84 31.4293H981.78V32.4864H974.161V31.4293H977.56V20.221L974.321 22.1555L973.761 21.2581L977.76 18.785H978.84V31.4293Z" fill="url(#paint90_linear_175_198)"/>
<path d="M978.84 54.2221H981.78V55.2792H974.161V54.2221H977.56V43.0138L974.321 44.9483L973.761 44.0509L977.76 41.5778H978.84V54.2221Z" fill="url(#paint91_linear_175_198)"/>
<path d="M977.64 64.1712C979.067 64.1712 980.147 64.7762 980.88 65.9861C981.627 67.1827 982 68.9245 982 71.2113C982 73.4982 981.627 75.2466 980.88 76.4565C980.147 77.6664 979.067 78.2714 977.64 78.2714C976.227 78.2714 975.147 77.6664 974.401 76.4565C973.654 75.2466 973.281 73.4982 973.281 71.2113C973.281 68.9378 973.654 67.196 974.401 65.9861C975.147 64.7762 976.227 64.1712 977.64 64.1712ZM974.7 71.2113C974.7 72.8334 974.847 74.1032 975.14 75.0206L979.58 66.1855C979.114 65.5606 978.467 65.2482 977.64 65.2482C976.72 65.2482 976 65.7401 975.48 66.724C974.96 67.6946 974.7 69.1904 974.7 71.2113ZM977.64 77.1745C978.574 77.1745 979.3 76.6892 979.82 75.7186C980.34 74.7347 980.6 73.2323 980.6 71.2113C980.6 69.4962 980.433 68.1666 980.1 67.2226L975.66 76.1374C976.14 76.8288 976.8 77.1745 977.64 77.1745Z" fill="url(#paint92_linear_175_198)"/>
<path d="M977.64 86.964C979.067 86.964 980.147 87.569 980.88 88.7789C981.627 89.9755 982 91.7173 982 94.0041C982 96.291 981.627 98.0394 980.88 99.2493C980.147 100.459 979.067 101.064 977.64 101.064C976.227 101.064 975.147 100.459 974.401 99.2493C973.654 98.0394 973.281 96.291 973.281 94.0041C973.281 91.7306 973.654 89.9888 974.401 88.7789C975.147 87.569 976.227 86.964 977.64 86.964ZM974.7 94.0041C974.7 95.6262 974.847 96.896 975.14 97.8134L979.58 88.9783C979.114 88.3534 978.467 88.041 977.64 88.041C976.72 88.041 976 88.5329 975.48 89.5168C974.96 90.4874 974.7 91.9832 974.7 94.0041ZM977.64 99.9673C978.574 99.9673 979.3 99.482 979.82 98.5114C980.34 97.5275 980.6 96.0251 980.6 94.0041C980.6 92.289 980.433 90.9594 980.1 90.0154L975.66 98.9302C976.14 99.6216 976.8 99.9673 977.64 99.9673Z" fill="url(#paint93_linear_175_198)"/>
</g>
<defs>
<filter id="filter0_f_175_198" x="-556.19" y="-713.19" width="2141.38" height="1500.38" filterUnits="userSpaceOnUse" color-interpolation-filters="sRGB">
<feFlood flood-opacity="0" result="BackgroundImageFix"/>
<feBlend mode="normal" in="SourceGraphic" in2="BackgroundImageFix" result="shape"/>
<feGaussianBlur stdDeviation="200.095" result="effect1_foregroundBlur_175_198"/>
</filter>
<linearGradient id="paint0_linear_175_198" x1="54.5" y1="273" x2="54.5" y2="584.381" gradientUnits="userSpaceOnUse">
<stop stop-color="#F7DD43"/>
<stop offset="1" stop-color="#F7DD43" stop-opacity="0"/>
</linearGradient>
<linearGradient id="paint1_linear_175_198" x1="54.5" y1="273" x2="54.5" y2="584.381" gradientUnits="userSpaceOnUse">
<stop stop-color="#F7DD43"/>
<stop offset="1" stop-color="#F7DD43" stop-opacity="0"/>
</linearGradient>
<linearGradient id="paint2_linear_175_198" x1="54.5" y1="273" x2="54.5" y2="584.381" gradientUnits="userSpaceOnUse">
<stop stop-color="#F7DD43"/>
<stop offset="1" stop-color="#F7DD43" stop-opacity="0"/>
</linearGradient>
<linearGradient id="paint3_linear_175_198" x1="54.5" y1="273" x2="54.5" y2="584.381" gradientUnits="userSpaceOnUse">
<stop stop-color="#F7DD43"/>
<stop offset="1" stop-color="#F7DD43" stop-opacity="0"/>
</linearGradient>
<linearGradient id="paint4_linear_175_198" x1="54.5" y1="273" x2="54.5" y2="584.381" gradientUnits="userSpaceOnUse">
<stop stop-color="#F7DD43"/>
<stop offset="1" stop-color="#F7DD43" stop-opacity="0"/>
</linearGradient>
<linearGradient id="paint5_linear_175_198" x1="54.5" y1="273" x2="54.5" y2="584.381" gradientUnits="userSpaceOnUse">
<stop stop-color="#F7DD43"/>
<stop offset="1" stop-color="#F7DD43" stop-opacity="0"/>
</linearGradient>
<linearGradient id="paint6_linear_175_198" x1="54.5" y1="273" x2="54.5" y2="584.381" gradientUnits="userSpaceOnUse">
<stop stop-color="#F7DD43"/>
<stop offset="1" stop-color="#F7DD43" stop-opacity="0"/>
</linearGradient>
<linearGradient id="paint7_linear_175_198" x1="54.5" y1="273" x2="54.5" y2="584.381" gradientUnits="userSpaceOnUse">
<stop stop-color="#F7DD43"/>
<stop offset="1" stop-color="#F7DD43" stop-opacity="0"/>
</linearGradient>
<linearGradient id="paint8_linear_175_198" x1="54.5" y1="273" x2="54.5" y2="584.381" gradientUnits="userSpaceOnUse">
<stop stop-color="#F7DD43"/>
<stop offset="1" stop-color="#F7DD43" stop-opacity="0"/>
</linearGradient>
<linearGradient id="paint9_linear_175_198" x1="54.5" y1="273" x2="54.5" y2="584.381" gradientUnits="userSpaceOnUse">
<stop stop-color="#F7DD43"/>
<stop offset="1" stop-color="#F7DD43" stop-opacity="0"/>
</linearGradient>
<linearGradient id="paint10_linear_175_198" x1="54.5" y1="273" x2="54.5" y2="584.381" gradientUnits="userSpaceOnUse">
<stop stop-color="#F7DD43"/>
<stop offset="1" stop-color="#F7DD43" stop-opacity="0"/>
</linearGradient>
<linearGradient id="paint11_linear_175_198" x1="54.5" y1="273" x2="54.5" y2="584.381" gradientUnits="userSpaceOnUse">
<stop stop-color="#F7DD43"/>
<stop offset="1" stop-color="#F7DD43" stop-opacity="0"/>
</linearGradient>
<linearGradient id="paint12_linear_175_198" x1="54.5" y1="273" x2="54.5" y2="584.381" gradientUnits="userSpaceOnUse">
<stop stop-color="#F7DD43"/>
<stop offset="1" stop-color="#F7DD43" stop-opacity="0"/>
</linearGradient>
<linearGradient id="paint13_linear_175_198" x1="54.5" y1="273" x2="54.5" y2="584.381" gradientUnits="userSpaceOnUse">
<stop stop-color="#F7DD43"/>
<stop offset="1" stop-color="#F7DD43" stop-opacity="0"/>
</linearGradient>
<linearGradient id="paint14_linear_175_198" x1="54.5" y1="273" x2="54.5" y2="584.381" gradientUnits="userSpaceOnUse">
<stop stop-color="#F7DD43"/>
<stop offset="1" stop-color="#F7DD43" stop-opacity="0"/>
</linearGradient>
<linearGradient id="paint15_linear_175_198" x1="54.5" y1="273" x2="54.5" y2="584.381" gradientUnits="userSpaceOnUse">
<stop stop-color="#F7DD43"/>
<stop offset="1" stop-color="#F7DD43" stop-opacity="0"/>
</linearGradient>
<linearGradient id="paint16_linear_175_198" x1="54.5" y1="273" x2="54.5" y2="584.381" gradientUnits="userSpaceOnUse">
<stop stop-color="#F7DD43"/>
<stop offset="1" stop-color="#F7DD43" stop-opacity="0"/>
</linearGradient>
<linearGradient id="paint17_linear_175_198" x1="54.5" y1="273" x2="54.5" y2="584.381" gradientUnits="userSpaceOnUse">
<stop stop-color="#F7DD43"/>
<stop offset="1" stop-color="#F7DD43" stop-opacity="0"/>
</linearGradient>
<linearGradient id="paint18_linear_175_198" x1="54.5" y1="273" x2="54.5" y2="584.381" gradientUnits="userSpaceOnUse">
<stop stop-color="#F7DD43"/>
<stop offset="1" stop-color="#F7DD43" stop-opacity="0"/>
</linearGradient>
<linearGradient id="paint19_linear_175_198" x1="54.5" y1="273" x2="54.5" y2="584.381" gradientUnits="userSpaceOnUse">
<stop stop-color="#F7DD43"/>
<stop offset="1" stop-color="#F7DD43" stop-opacity="0"/>
</linearGradient>
<linearGradient id="paint20_linear_175_198" x1="54.5" y1="273" x2="54.5" y2="584.381" gradientUnits="userSpaceOnUse">
<stop stop-color="#F7DD43"/>
<stop offset="1" stop-color="#F7DD43" stop-opacity="0"/>
</linearGradient>
<linearGradient id="paint21_linear_175_198" x1="54.5" y1="273" x2="54.5" y2="584.381" gradientUnits="userSpaceOnUse">
<stop stop-color="#F7DD43"/>
<stop offset="1" stop-color="#F7DD43" stop-opacity="0"/>
</linearGradient>
<linearGradient id="paint22_linear_175_198" x1="54.5" y1="273" x2="54.5" y2="584.381" gradientUnits="userSpaceOnUse">
<stop stop-color="#F7DD43"/>
<stop offset="1" stop-color="#F7DD43" stop-opacity="0"/>
</linearGradient>
<linearGradient id="paint23_linear_175_198" x1="54.5" y1="273" x2="54.5" y2="584.381" gradientUnits="userSpaceOnUse">
<stop stop-color="#F7DD43"/>
<stop offset="1" stop-color="#F7DD43" stop-opacity="0"/>
</linearGradient>
<linearGradient id="paint24_linear_175_198" x1="54.5" y1="273" x2="54.5" y2="584.381" gradientUnits="userSpaceOnUse">
<stop stop-color="#F7DD43"/>
<stop offset="1" stop-color="#F7DD43" stop-opacity="0"/>
</linearGradient>
<linearGradient id="paint25_linear_175_198" x1="54.5" y1="273" x2="54.5" y2="584.381" gradientUnits="userSpaceOnUse">
<stop stop-color="#F7DD43"/>
<stop offset="1" stop-color="#F7DD43" stop-opacity="0"/>
</linearGradient>
<linearGradient id="paint26_linear_175_198" x1="54.5" y1="273" x2="54.5" y2="584.381" gradientUnits="userSpaceOnUse">
<stop stop-color="#F7DD43"/>
<stop offset="1" stop-color="#F7DD43" stop-opacity="0"/>
</linearGradient>
<linearGradient id="paint27_linear_175_198" x1="54.5" y1="273" x2="54.5" y2="584.381" gradientUnits="userSpaceOnUse">
<stop stop-color="#F7DD43"/>
<stop offset="1" stop-color="#F7DD43" stop-opacity="0"/>
</linearGradient>
<linearGradient id="paint28_linear_175_198" x1="54.5" y1="273" x2="54.5" y2="584.381" gradientUnits="userSpaceOnUse">
<stop stop-color="#F7DD43"/>
<stop offset="1" stop-color="#F7DD43" stop-opacity="0"/>
</linearGradient>
<linearGradient id="paint29_linear_175_198" x1="54.5" y1="273" x2="54.5" y2="584.381" gradientUnits="userSpaceOnUse">
<stop stop-color="#F7DD43"/>
<stop offset="1" stop-color="#F7DD43" stop-opacity="0"/>
</linearGradient>
<linearGradient id="paint30_linear_175_198" x1="54.5" y1="273" x2="54.5" y2="584.381" gradientUnits="userSpaceOnUse">
<stop stop-color="#F7DD43"/>
<stop offset="1" stop-color="#F7DD43" stop-opacity="0"/>
</linearGradient>
<linearGradient id="paint31_linear_175_198" x1="54.5" y1="273" x2="54.5" y2="584.381" gradientUnits="userSpaceOnUse">
<stop stop-color="#F7DD43"/>
<stop offset="1" stop-color="#F7DD43" stop-opacity="0"/>
</linearGradient>
<linearGradient id="paint32_linear_175_198" x1="54.5" y1="273" x2="54.5" y2="584.381" gradientUnits="userSpaceOnUse">
<stop stop-color="#F7DD43"/>
<stop offset="1" stop-color="#F7DD43" stop-opacity="0"/>
</linearGradient>
<linearGradient id="paint33_linear_175_198" x1="54.5" y1="273" x2="54.5" y2="584.381" gradientUnits="userSpaceOnUse">
<stop stop-color="#F7DD43"/>
<stop offset="1" stop-color="#F7DD43" stop-opacity="0"/>
</linearGradient>
<linearGradient id="paint34_linear_175_198" x1="54.5" y1="273" x2="54.5" y2="584.381" gradientUnits="userSpaceOnUse">
<stop stop-color="#F7DD43"/>
<stop offset="1" stop-color="#F7DD43" stop-opacity="0"/>
</linearGradient>
<linearGradient id="paint35_linear_175_198" x1="54.5" y1="273" x2="54.5" y2="584.381" gradientUnits="userSpaceOnUse">
<stop stop-color="#F7DD43"/>
<stop offset="1" stop-color="#F7DD43" stop-opacity="0"/>
</linearGradient>
<linearGradient id="paint36_linear_175_198" x1="54.5" y1="273" x2="54.5" y2="584.381" gradientUnits="userSpaceOnUse">
<stop stop-color="#F7DD43"/>
<stop offset="1" stop-color="#F7DD43" stop-opacity="0"/>
</linearGradient>
<linearGradient id="paint37_linear_175_198" x1="54.5" y1="273" x2="54.5" y2="584.381" gradientUnits="userSpaceOnUse">
<stop stop-color="#F7DD43"/>
<stop offset="1" stop-color="#F7DD43" stop-opacity="0"/>
</linearGradient>
<linearGradient id="paint38_linear_175_198" x1="54.5" y1="273" x2="54.5" y2="584.381" gradientUnits="userSpaceOnUse">
<stop stop-color="#F7DD43"/>
<stop offset="1" stop-color="#F7DD43" stop-opacity="0"/>
</linearGradient>
<linearGradient id="paint39_linear_175_198" x1="54.5" y1="273" x2="54.5" y2="584.381" gradientUnits="userSpaceOnUse">
<stop stop-color="#F7DD43"/>
<stop offset="1" stop-color="#F7DD43" stop-opacity="0"/>
</linearGradient>
<linearGradient id="paint40_linear_175_198" x1="54.5" y1="273" x2="54.5" y2="584.381" gradientUnits="userSpaceOnUse">
<stop stop-color="#F7DD43"/>
<stop offset="1" stop-color="#F7DD43" stop-opacity="0"/>
</linearGradient>
<linearGradient id="paint41_linear_175_198" x1="54.5" y1="273" x2="54.5" y2="584.381" gradientUnits="userSpaceOnUse">
<stop stop-color="#F7DD43"/>
<stop offset="1" stop-color="#F7DD43" stop-opacity="0"/>
</linearGradient>
<linearGradient id="paint42_linear_175_198" x1="54.5" y1="273" x2="54.5" y2="584.381" gradientUnits="userSpaceOnUse">
<stop stop-color="#F7DD43"/>
<stop offset="1" stop-color="#F7DD43" stop-opacity="0"/>
</linearGradient>
<linearGradient id="paint43_linear_175_198" x1="54.5" y1="273" x2="54.5" y2="584.381" gradientUnits="userSpaceOnUse">
<stop stop-color="#F7DD43"/>
<stop offset="1" stop-color="#F7DD43" stop-opacity="0"/>
</linearGradient>
<linearGradient id="paint44_linear_175_198" x1="54.5" y1="273" x2="54.5" y2="584.381" gradientUnits="userSpaceOnUse">
<stop stop-color="#F7DD43"/>
<stop offset="1" stop-color="#F7DD43" stop-opacity="0"/>
</linearGradient>
<linearGradient id="paint45_linear_175_198" x1="54.5" y1="273" x2="54.5" y2="584.381" gradientUnits="userSpaceOnUse">
<stop stop-color="#F7DD43"/>
<stop offset="1" stop-color="#F7DD43" stop-opacity="0"/>
</linearGradient>
<linearGradient id="paint46_linear_175_198" x1="54.5" y1="273" x2="54.5" y2="584.381" gradientUnits="userSpaceOnUse">
<stop stop-color="#F7DD43"/>
<stop offset="1" stop-color="#F7DD43" stop-opacity="0"/>
</linearGradient>
<linearGradient id="paint47_linear_175_198" x1="940.5" y1="-27" x2="940.5" y2="271.818" gradientUnits="userSpaceOnUse">
<stop stop-color="#F7DD43"/>
<stop offset="1" stop-color="#F7DD43" stop-opacity="0"/>
</linearGradient>
<linearGradient id="paint48_linear_175_198" x1="940.5" y1="-27" x2="940.5" y2="271.818" gradientUnits="userSpaceOnUse">
<stop stop-color="#F7DD43"/>
<stop offset="1" stop-color="#F7DD43" stop-opacity="0"/>
</linearGradient>
<linearGradient id="paint49_linear_175_198" x1="940.5" y1="-27" x2="940.5" y2="271.818" gradientUnits="userSpaceOnUse">
<stop stop-color="#F7DD43"/>
<stop offset="1" stop-color="#F7DD43" stop-opacity="0"/>
</linearGradient>
<linearGradient id="paint50_linear_175_198" x1="940.5" y1="-27" x2="940.5" y2="271.818" gradientUnits="userSpaceOnUse">
<stop stop-color="#F7DD43"/>
<stop offset="1" stop-color="#F7DD43" stop-opacity="0"/>
</linearGradient>
<linearGradient id="paint51_linear_175_198" x1="940.5" y1="-27" x2="940.5" y2="271.818" gradientUnits="userSpaceOnUse">
<stop stop-color="#F7DD43"/>
<stop offset="1" stop-color="#F7DD43" stop-opacity="0"/>
</linearGradient>
<linearGradient id="paint52_linear_175_198" x1="940.5" y1="-27" x2="940.5" y2="271.818" gradientUnits="userSpaceOnUse">
<stop stop-color="#F7DD43"/>
<stop offset="1" stop-color="#F7DD43" stop-opacity="0"/>
</linearGradient>
<linearGradient id="paint53_linear_175_198" x1="940.5" y1="-27" x2="940.5" y2="271.818" gradientUnits="userSpaceOnUse">
<stop stop-color="#F7DD43"/>
<stop offset="1" stop-color="#F7DD43" stop-opacity="0"/>
</linearGradient>
<linearGradient id="paint54_linear_175_198" x1="940.5" y1="-27" x2="940.5" y2="271.818" gradientUnits="userSpaceOnUse">
<stop stop-color="#F7DD43"/>
<stop offset="1" stop-color="#F7DD43" stop-opacity="0"/>
</linearGradient>
<linearGradient id="paint55_linear_175_198" x1="940.5" y1="-27" x2="940.5" y2="271.818" gradientUnits="userSpaceOnUse">
<stop stop-color="#F7DD43"/>
<stop offset="1" stop-color="#F7DD43" stop-opacity="0"/>
</linearGradient>
<linearGradient id="paint56_linear_175_198" x1="940.5" y1="-27" x2="940.5" y2="271.818" gradientUnits="userSpaceOnUse">
<stop stop-color="#F7DD43"/>
<stop offset="1" stop-color="#F7DD43" stop-opacity="0"/>
</linearGradient>
<linearGradient id="paint57_linear_175_198" x1="940.5" y1="-27" x2="940.5" y2="271.818" gradientUnits="userSpaceOnUse">
<stop stop-color="#F7DD43"/>
<stop offset="1" stop-color="#F7DD43" stop-opacity="0"/>
</linearGradient>
<linearGradient id="paint58_linear_175_198" x1="940.5" y1="-27" x2="940.5" y2="271.818" gradientUnits="userSpaceOnUse">
<stop stop-color="#F7DD43"/>
<stop offset="1" stop-color="#F7DD43" stop-opacity="0"/>
</linearGradient>
<linearGradient id="paint59_linear_175_198" x1="940.5" y1="-27" x2="940.5" y2="271.818" gradientUnits="userSpaceOnUse">
<stop stop-color="#F7DD43"/>
<stop offset="1" stop-color="#F7DD43" stop-opacity="0"/>
</linearGradient>
<linearGradient id="paint60_linear_175_198" x1="940.5" y1="-27" x2="940.5" y2="271.818" gradientUnits="userSpaceOnUse">
<stop stop-color="#F7DD43"/>
<stop offset="1" stop-color="#F7DD43" stop-opacity="0"/>
</linearGradient>
<linearGradient id="paint61_linear_175_198" x1="940.5" y1="-27" x2="940.5" y2="271.818" gradientUnits="userSpaceOnUse">
<stop stop-color="#F7DD43"/>
<stop offset="1" stop-color="#F7DD43" stop-opacity="0"/>
</linearGradient>
<linearGradient id="paint62_linear_175_198" x1="940.5" y1="-27" x2="940.5" y2="271.818" gradientUnits="userSpaceOnUse">
<stop stop-color="#F7DD43"/>
<stop offset="1" stop-color="#F7DD43" stop-opacity="0"/>
</linearGradient>
<linearGradient id="paint63_linear_175_198" x1="940.5" y1="-27" x2="940.5" y2="271.818" gradientUnits="userSpaceOnUse">
<stop stop-color="#F7DD43"/>
<stop offset="1" stop-color="#F7DD43" stop-opacity="0"/>
</linearGradient>
<linearGradient id="paint64_linear_175_198" x1="940.5" y1="-27" x2="940.5" y2="271.818" gradientUnits="userSpaceOnUse">
<stop stop-color="#F7DD43"/>
<stop offset="1" stop-color="#F7DD43" stop-opacity="0"/>
</linearGradient>
<linearGradient id="paint65_linear_175_198" x1="940.5" y1="-27" x2="940.5" y2="271.818" gradientUnits="userSpaceOnUse">
<stop stop-color="#F7DD43"/>
<stop offset="1" stop-color="#F7DD43" stop-opacity="0"/>
</linearGradient>
<linearGradient id="paint66_linear_175_198" x1="940.5" y1="-27" x2="940.5" y2="271.818" gradientUnits="userSpaceOnUse">
<stop stop-color="#F7DD43"/>
<stop offset="1" stop-color="#F7DD43" stop-opacity="0"/>
</linearGradient>
<linearGradient id="paint67_linear_175_198" x1="940.5" y1="-27" x2="940.5" y2="271.818" gradientUnits="userSpaceOnUse">
<stop stop-color="#F7DD43"/>
<stop offset="1" stop-color="#F7DD43" stop-opacity="0"/>
</linearGradient>
<linearGradient id="paint68_linear_175_198" x1="940.5" y1="-27" x2="940.5" y2="271.818" gradientUnits="userSpaceOnUse">
<stop stop-color="#F7DD43"/>
<stop offset="1" stop-color="#F7DD43" stop-opacity="0"/>
</linearGradient>
<linearGradient id="paint69_linear_175_198" x1="940.5" y1="-27" x2="940.5" y2="271.818" gradientUnits="userSpaceOnUse">
<stop stop-color="#F7DD43"/>
<stop offset="1" stop-color="#F7DD43" stop-opacity="0"/>
</linearGradient>
<linearGradient id="paint70_linear_175_198" x1="940.5" y1="-27" x2="940.5" y2="271.818" gradientUnits="userSpaceOnUse">
<stop stop-color="#F7DD43"/>
<stop offset="1" stop-color="#F7DD43" stop-opacity="0"/>
</linearGradient>
<linearGradient id="paint71_linear_175_198" x1="940.5" y1="-27" x2="940.5" y2="271.818" gradientUnits="userSpaceOnUse">
<stop stop-color="#F7DD43"/>
<stop offset="1" stop-color="#F7DD43" stop-opacity="0"/>
</linearGradient>
<linearGradient id="paint72_linear_175_198" x1="940.5" y1="-27" x2="940.5" y2="271.818" gradientUnits="userSpaceOnUse">
<stop stop-color="#F7DD43"/>
<stop offset="1" stop-color="#F7DD43" stop-opacity="0"/>
</linearGradient>
<linearGradient id="paint73_linear_175_198" x1="940.5" y1="-27" x2="940.5" y2="271.818" gradientUnits="userSpaceOnUse">
<stop stop-color="#F7DD43"/>
<stop offset="1" stop-color="#F7DD43" stop-opacity="0"/>
</linearGradient>
<linearGradient id="paint74_linear_175_198" x1="940.5" y1="-27" x2="940.5" y2="271.818" gradientUnits="userSpaceOnUse">
<stop stop-color="#F7DD43"/>
<stop offset="1" stop-color="#F7DD43" stop-opacity="0"/>
</linearGradient>
<linearGradient id="paint75_linear_175_198" x1="940.5" y1="-27" x2="940.5" y2="271.818" gradientUnits="userSpaceOnUse">
<stop stop-color="#F7DD43"/>
<stop offset="1" stop-color="#F7DD43" stop-opacity="0"/>
</linearGradient>
<linearGradient id="paint76_linear_175_198" x1="940.5" y1="-27" x2="940.5" y2="271.818" gradientUnits="userSpaceOnUse">
<stop stop-color="#F7DD43"/>
<stop offset="1" stop-color="#F7DD43" stop-opacity="0"/>
</linearGradient>
<linearGradient id="paint77_linear_175_198" x1="940.5" y1="-27" x2="940.5" y2="271.818" gradientUnits="userSpaceOnUse">
<stop stop-color="#F7DD43"/>
<stop offset="1" stop-color="#F7DD43" stop-opacity="0"/>
</linearGradient>
<linearGradient id="paint78_linear_175_198" x1="940.5" y1="-27" x2="940.5" y2="271.818" gradientUnits="userSpaceOnUse">
<stop stop-color="#F7DD43"/>
<stop offset="1" stop-color="#F7DD43" stop-opacity="0"/>
</linearGradient>
<linearGradient id="paint79_linear_175_198" x1="940.5" y1="-27" x2="940.5" y2="271.818" gradientUnits="userSpaceOnUse">
<stop stop-color="#F7DD43"/>
<stop offset="1" stop-color="#F7DD43" stop-opacity="0"/>
</linearGradient>
<linearGradient id="paint80_linear_175_198" x1="940.5" y1="-27" x2="940.5" y2="271.818" gradientUnits="userSpaceOnUse">
<stop stop-color="#F7DD43"/>
<stop offset="1" stop-color="#F7DD43" stop-opacity="0"/>
</linearGradient>
<linearGradient id="paint81_linear_175_198" x1="940.5" y1="-27" x2="940.5" y2="271.818" gradientUnits="userSpaceOnUse">
<stop stop-color="#F7DD43"/>
<stop offset="1" stop-color="#F7DD43" stop-opacity="0"/>
</linearGradient>
<linearGradient id="paint82_linear_175_198" x1="940.5" y1="-27" x2="940.5" y2="271.818" gradientUnits="userSpaceOnUse">
<stop stop-color="#F7DD43"/>
<stop offset="1" stop-color="#F7DD43" stop-opacity="0"/>
</linearGradient>
<linearGradient id="paint83_linear_175_198" x1="940.5" y1="-27" x2="940.5" y2="271.818" gradientUnits="userSpaceOnUse">
<stop stop-color="#F7DD43"/>
<stop offset="1" stop-color="#F7DD43" stop-opacity="0"/>
</linearGradient>
<linearGradient id="paint84_linear_175_198" x1="940.5" y1="-27" x2="940.5" y2="271.818" gradientUnits="userSpaceOnUse">
<stop stop-color="#F7DD43"/>
<stop offset="1" stop-color="#F7DD43" stop-opacity="0"/>
</linearGradient>
<linearGradient id="paint85_linear_175_198" x1="940.5" y1="-27" x2="940.5" y2="271.818" gradientUnits="userSpaceOnUse">
<stop stop-color="#F7DD43"/>
<stop offset="1" stop-color="#F7DD43" stop-opacity="0"/>
</linearGradient>
<linearGradient id="paint86_linear_175_198" x1="940.5" y1="-27" x2="940.5" y2="271.818" gradientUnits="userSpaceOnUse">
<stop stop-color="#F7DD43"/>
<stop offset="1" stop-color="#F7DD43" stop-opacity="0"/>
</linearGradient>
<linearGradient id="paint87_linear_175_198" x1="940.5" y1="-27" x2="940.5" y2="271.818" gradientUnits="userSpaceOnUse">
<stop stop-color="#F7DD43"/>
<stop offset="1" stop-color="#F7DD43" stop-opacity="0"/>
</linearGradient>
<linearGradient id="paint88_linear_175_198" x1="940.5" y1="-27" x2="940.5" y2="271.818" gradientUnits="userSpaceOnUse">
<stop stop-color="#F7DD43"/>
<stop offset="1" stop-color="#F7DD43" stop-opacity="0"/>
</linearGradient>
<linearGradient id="paint89_linear_175_198" x1="940.5" y1="-27" x2="940.5" y2="271.818" gradientUnits="userSpaceOnUse">
<stop stop-color="#F7DD43"/>
<stop offset="1" stop-color="#F7DD43" stop-opacity="0"/>
</linearGradient>
<linearGradient id="paint90_linear_175_198" x1="940.5" y1="-27" x2="940.5" y2="271.818" gradientUnits="userSpaceOnUse">
<stop stop-color="#F7DD43"/>
<stop offset="1" stop-color="#F7DD43" stop-opacity="0"/>
</linearGradient>
<linearGradient id="paint91_linear_175_198" x1="940.5" y1="-27" x2="940.5" y2="271.818" gradientUnits="userSpaceOnUse">
<stop stop-color="#F7DD43"/>
<stop offset="1" stop-color="#F7DD43" stop-opacity="0"/>
</linearGradient>
<linearGradient id="paint92_linear_175_198" x1="940.5" y1="-27" x2="940.5" y2="271.818" gradientUnits="userSpaceOnUse">
<stop stop-color="#F7DD43"/>
<stop offset="1" stop-color="#F7DD43" stop-opacity="0"/>
</linearGradient>
<linearGradient id="paint93_linear_175_198" x1="940.5" y1="-27" x2="940.5" y2="271.818" gradientUnits="userSpaceOnUse">
<stop stop-color="#F7DD43"/>
<stop offset="1" stop-color="#F7DD43" stop-opacity="0"/>
</linearGradient>
</defs>
</svg>
