<svg width="255" height="102" viewBox="0 0 255 102" fill="none" xmlns="http://www.w3.org/2000/svg">
<path fill-rule="evenodd" clip-rule="evenodd" d="M84.5126 9.2816V7.20316L78.767 9.33873H78.7561V11.4716H78.767L84.5126 13.6072V11.526L81.5664 10.3997L84.5126 9.27888V9.2816Z" fill="#F7DD43"/>
<path fill-rule="evenodd" clip-rule="evenodd" d="M117.792 13.5037V11.4253L120.736 10.3072L117.792 9.18905V7.1106L123.53 9.24618H123.543V11.3817H123.53L117.792 13.5064V13.5037ZM115.327 4.16977L111.954 15H113.956L117.33 4.16977H115.327Z" fill="#F7DD43"/>
<path fill-rule="evenodd" clip-rule="evenodd" d="M92.9543 6.91747C93.5256 7.54317 93.8249 8.3702 93.7895 9.21627V13.8302H91.7872V9.64066C91.8117 9.17274 91.6621 8.7157 91.3683 8.35116C91.0908 8.02742 90.68 7.84787 90.2529 7.86691C88.9987 7.86691 88.3703 8.73746 88.3703 10.4758V13.8302H86.368V6.25639H88.3703V6.93923C89.0069 6.32168 89.8693 5.99251 90.7562 6.03059C91.5832 5.99523 92.383 6.31896 92.9543 6.91747Z" fill="#F7DD43"/>
<path fill-rule="evenodd" clip-rule="evenodd" d="M96.3413 3V13.8302H98.3436V3H96.3413Z" fill="#F7DD43"/>
<path fill-rule="evenodd" clip-rule="evenodd" d="M109.666 13.8302H107.996L106.358 9.36862L104.704 13.8302H103.034L100.226 6.2428H102.367L103.945 10.7806L105.572 6.2428H107.136L108.763 10.7942L110.341 6.2428H112.482L109.672 13.8302H109.666Z" fill="#F7DD43"/>
<path d="M133.08 17.9981C131.153 17.9981 129.129 17.6331 127.543 16.754V1.24411C129.105 0.389878 131.128 2.85548e-05 133.08 2.85548e-05C135.031 2.85548e-05 137.007 0.365035 138.566 1.24411V7.19505H134.639V3.14558C134.177 2.95066 133.615 2.87804 133.055 2.87804C132.495 2.87804 131.981 2.95066 131.493 3.14558V14.8525C131.956 15.0475 132.493 15.1201 133.055 15.1201C133.617 15.1201 134.152 15.0475 134.639 14.8525V10.805H138.566V16.7559C137.03 17.6101 135.006 17.9752 133.08 18V17.9981Z" fill="#F7DD43"/>
<path d="M145.931 17.9981C143.858 17.9981 141.859 17.5585 140.273 16.6565V1.3167C141.834 0.439536 143.835 0 145.931 0C148.028 0 149.979 0.414693 151.54 1.3167V16.6565C150.004 17.5585 147.98 17.9732 145.931 17.9981ZM147.615 3.19524C147.152 3.00031 146.591 2.90285 145.908 2.90285C145.226 2.90285 144.689 3.00031 144.225 3.19524V14.7799C144.687 14.9997 145.249 15.0971 145.908 15.0971C146.568 15.0971 147.128 14.9997 147.615 14.7799V3.19524Z" fill="#F7DD43"/>
<path d="M158.393 11.4127H157.344V17.7783H153.369V0.219779H158.393C160.784 0.219779 162.588 0.707092 164.002 1.70656V9.92589C162.613 10.9024 160.782 11.4127 158.393 11.4127ZM160.052 3.24303C159.687 2.97548 159.198 2.85318 158.368 2.85318H157.294V8.77927H158.368C159.173 8.77927 159.66 8.65697 160.052 8.41427V3.24303Z" fill="#F7DD43"/>
<path d="M172.317 17.7783V11.4127H169.391V17.7783H165.441V1.29185C166.88 0.437625 168.904 0 170.855 0C172.806 0 174.805 0.439537 176.244 1.29185V17.7783H172.317ZM172.317 3.04809C171.902 2.85316 171.39 2.7557 170.853 2.7557C170.316 2.7557 169.804 2.85316 169.389 3.04809V8.63211H172.315V3.04809H172.317Z" fill="#F7DD43"/>
<path d="M46.9775 47.9248H51.3574C51.2695 49.3604 50.874 50.6348 50.1709 51.748C49.4775 52.8613 48.5059 53.7305 47.2559 54.3555C46.0156 54.9805 44.5215 55.293 42.7734 55.293C41.4062 55.293 40.1807 55.0586 39.0967 54.5898C38.0127 54.1113 37.085 53.4277 36.3135 52.5391C35.5518 51.6504 34.9707 50.5762 34.5703 49.3164C34.1699 48.0566 33.9697 46.6455 33.9697 45.083V43.6035C33.9697 42.041 34.1748 40.6299 34.585 39.3701C35.0049 38.1006 35.6006 37.0215 36.3721 36.1328C37.1533 35.2441 38.0859 34.5605 39.1699 34.082C40.2539 33.6035 41.4648 33.3643 42.8027 33.3643C44.5801 33.3643 46.0791 33.6865 47.2998 34.3311C48.5303 34.9756 49.4824 35.8643 50.1562 36.9971C50.8398 38.1299 51.25 39.4189 51.3867 40.8643H46.9922C46.9434 40.0049 46.7725 39.2773 46.4795 38.6816C46.1865 38.0762 45.7422 37.6221 45.1465 37.3193C44.5605 37.0068 43.7793 36.8506 42.8027 36.8506C42.0703 36.8506 41.4307 36.9873 40.8838 37.2607C40.3369 37.5342 39.8779 37.9492 39.5068 38.5059C39.1357 39.0625 38.8574 39.7656 38.6719 40.6152C38.4961 41.4551 38.4082 42.4414 38.4082 43.5742V45.083C38.4082 46.1865 38.4912 47.1582 38.6572 47.998C38.8232 48.8281 39.0771 49.5312 39.4189 50.1074C39.7705 50.6738 40.2197 51.1035 40.7666 51.3965C41.3232 51.6797 41.9922 51.8213 42.7734 51.8213C43.6914 51.8213 44.4482 51.6748 45.0439 51.3818C45.6396 51.0889 46.0938 50.6543 46.4062 50.0781C46.7285 49.502 46.9189 48.7842 46.9775 47.9248ZM62.915 37.3193L57.1143 55H52.4414L60.3662 33.6719H63.3398L62.915 37.3193ZM67.7344 55L61.9189 37.3193L61.4502 33.6719H64.4531L72.4219 55H67.7344ZM67.4707 47.0605V50.5029H56.2061V47.0605H67.4707ZM88.1104 51.5723V55H77.373V51.5723H88.1104ZM78.7939 33.6719V55H74.3994V33.6719H78.7939ZM104.941 51.5723V55H93.5889V51.5723H104.941ZM95.0244 33.6719V55H90.6299V33.6719H95.0244ZM103.462 42.3584V45.6982H93.5889V42.3584H103.462ZM104.927 33.6719V37.1143H93.5889V33.6719H104.927ZM124.863 33.6719V55H120.469L111.899 40.7031V55H107.505V33.6719H111.899L120.483 47.9834V33.6719H124.863ZM135.234 55H130.591L130.62 51.5723H135.234C136.387 51.5723 137.358 51.3135 138.149 50.7959C138.94 50.2686 139.536 49.502 139.937 48.4961C140.347 47.4902 140.552 46.2744 140.552 44.8486V43.8086C140.552 42.7148 140.435 41.7529 140.2 40.9229C139.976 40.0928 139.639 39.3945 139.189 38.8281C138.74 38.2617 138.188 37.8369 137.534 37.5537C136.88 37.2607 136.128 37.1143 135.278 37.1143H130.503V33.6719H135.278C136.704 33.6719 138.008 33.916 139.189 34.4043C140.381 34.8828 141.411 35.5713 142.28 36.4697C143.149 37.3682 143.818 38.4424 144.287 39.6924C144.766 40.9326 145.005 42.3145 145.005 43.8379V44.8486C145.005 46.3623 144.766 47.7441 144.287 48.9941C143.818 50.2441 143.149 51.3184 142.28 52.2168C141.421 53.1055 140.391 53.7939 139.189 54.2822C137.998 54.7607 136.68 55 135.234 55ZM133.081 33.6719V55H128.687V33.6719H133.081ZM156.548 37.3193L150.747 55H146.074L153.999 33.6719H156.973L156.548 37.3193ZM161.367 55L155.552 37.3193L155.083 33.6719H158.086L166.055 55H161.367ZM161.104 47.0605V50.5029H149.839V47.0605H161.104ZM154.072 32.4707L156.943 27.959H161.528L157.5 32.4707H154.072ZM168.032 33.6719H175.986C177.617 33.6719 179.019 33.916 180.19 34.4043C181.372 34.8926 182.28 35.6152 182.915 36.5723C183.55 37.5293 183.867 38.7061 183.867 40.1025C183.867 41.2451 183.672 42.2266 183.281 43.0469C182.9 43.8574 182.358 44.5361 181.655 45.083C180.962 45.6201 180.146 46.0498 179.209 46.3721L177.817 47.1045H170.903L170.874 43.6768H176.016C176.787 43.6768 177.427 43.54 177.935 43.2666C178.442 42.9932 178.823 42.6123 179.077 42.124C179.341 41.6357 179.473 41.0693 179.473 40.4248C179.473 39.7412 179.346 39.1504 179.092 38.6523C178.838 38.1543 178.452 37.7734 177.935 37.5098C177.417 37.2461 176.768 37.1143 175.986 37.1143H172.427V55H168.032V33.6719ZM179.956 55L175.093 45.4932L179.736 45.4639L184.658 54.7949V55H179.956ZM191.924 33.6719V55H187.544V33.6719H191.924ZM213.56 43.8379V44.8486C213.56 46.4697 213.34 47.9248 212.9 49.2139C212.461 50.5029 211.841 51.6016 211.04 52.5098C210.239 53.4082 209.282 54.0967 208.169 54.5752C207.065 55.0537 205.84 55.293 204.492 55.293C203.154 55.293 201.929 55.0537 200.815 54.5752C199.712 54.0967 198.755 53.4082 197.944 52.5098C197.134 51.6016 196.504 50.5029 196.055 49.2139C195.615 47.9248 195.396 46.4697 195.396 44.8486V43.8379C195.396 42.207 195.615 40.752 196.055 39.4727C196.494 38.1836 197.114 37.085 197.915 36.1768C198.726 35.2686 199.683 34.5752 200.786 34.0967C201.899 33.6182 203.125 33.3789 204.463 33.3789C205.811 33.3789 207.036 33.6182 208.14 34.0967C209.253 34.5752 210.21 35.2686 211.011 36.1768C211.821 37.085 212.446 38.1836 212.886 39.4727C213.335 40.752 213.56 42.207 213.56 43.8379ZM209.121 44.8486V43.8086C209.121 42.6758 209.019 41.6797 208.813 40.8203C208.608 39.9609 208.306 39.2383 207.905 38.6523C207.505 38.0664 207.017 37.627 206.44 37.334C205.864 37.0312 205.205 36.8799 204.463 36.8799C203.721 36.8799 203.062 37.0312 202.485 37.334C201.919 37.627 201.436 38.0664 201.035 38.6523C200.645 39.2383 200.347 39.9609 200.142 40.8203C199.937 41.6797 199.834 42.6758 199.834 43.8086V44.8486C199.834 45.9717 199.937 46.9678 200.142 47.8369C200.347 48.6963 200.649 49.4238 201.05 50.0195C201.45 50.6055 201.938 51.0498 202.515 51.3525C203.091 51.6553 203.75 51.8066 204.492 51.8066C205.234 51.8066 205.894 51.6553 206.47 51.3525C207.046 51.0498 207.529 50.6055 207.92 50.0195C208.311 49.4238 208.608 48.6963 208.813 47.8369C209.019 46.9678 209.121 45.9717 209.121 44.8486ZM10.9131 86.4521V71.6719H15.293V86.4521C15.293 87.8779 14.9805 89.1035 14.3555 90.1289C13.7305 91.1445 12.876 91.9258 11.792 92.4727C10.7178 93.0195 9.50684 93.293 8.15918 93.293C6.7627 93.293 5.52734 93.0586 4.45312 92.5898C3.37891 92.1211 2.53418 91.4033 1.91895 90.4365C1.30371 89.46 0.996094 88.2246 0.996094 86.7305H5.40527C5.40527 87.5117 5.5127 88.1318 5.72754 88.5908C5.95215 89.0498 6.26953 89.377 6.67969 89.5723C7.08984 89.7676 7.58301 89.8652 8.15918 89.8652C8.71582 89.8652 9.19922 89.7334 9.60938 89.4697C10.0195 89.2061 10.3369 88.8203 10.5615 88.3125C10.7959 87.8047 10.9131 87.1846 10.9131 86.4521ZM36.5625 81.8379V82.8486C36.5625 84.4697 36.3428 85.9248 35.9033 87.2139C35.4639 88.5029 34.8438 89.6016 34.043 90.5098C33.2422 91.4082 32.2852 92.0967 31.1719 92.5752C30.0684 93.0537 28.8428 93.293 27.4951 93.293C26.1572 93.293 24.9316 93.0537 23.8184 92.5752C22.7148 92.0967 21.7578 91.4082 20.9473 90.5098C20.1367 89.6016 19.5068 88.5029 19.0576 87.2139C18.6182 85.9248 18.3984 84.4697 18.3984 82.8486V81.8379C18.3984 80.207 18.6182 78.752 19.0576 77.4727C19.4971 76.1836 20.1172 75.085 20.918 74.1768C21.7285 73.2686 22.6855 72.5752 23.7891 72.0967C24.9023 71.6182 26.1279 71.3789 27.4658 71.3789C28.8135 71.3789 30.0391 71.6182 31.1426 72.0967C32.2559 72.5752 33.2129 73.2686 34.0137 74.1768C34.8242 75.085 35.4492 76.1836 35.8887 77.4727C36.3379 78.752 36.5625 80.207 36.5625 81.8379ZM32.124 82.8486V81.8086C32.124 80.6758 32.0215 79.6797 31.8164 78.8203C31.6113 77.9609 31.3086 77.2383 30.9082 76.6523C30.5078 76.0664 30.0195 75.627 29.4434 75.334C28.8672 75.0312 28.208 74.8799 27.4658 74.8799C26.7236 74.8799 26.0645 75.0312 25.4883 75.334C24.9219 75.627 24.4385 76.0664 24.0381 76.6523C23.6475 77.2383 23.3496 77.9609 23.1445 78.8203C22.9395 79.6797 22.8369 80.6758 22.8369 81.8086V82.8486C22.8369 83.9717 22.9395 84.9678 23.1445 85.8369C23.3496 86.6963 23.6523 87.4238 24.0527 88.0195C24.4531 88.6055 24.9414 89.0498 25.5176 89.3525C26.0938 89.6553 26.7529 89.8066 27.4951 89.8066C28.2373 89.8066 28.8965 89.6553 29.4727 89.3525C30.0488 89.0498 30.5322 88.6055 30.9229 88.0195C31.3135 87.4238 31.6113 86.6963 31.8164 85.8369C32.0215 84.9678 32.124 83.9717 32.124 82.8486ZM56.6309 81.8525V90.3047C56.2988 90.7051 55.7861 91.1396 55.0928 91.6084C54.3994 92.0674 53.5059 92.4629 52.4121 92.7949C51.3184 93.127 49.9951 93.293 48.4424 93.293C47.0654 93.293 45.8105 93.0684 44.6777 92.6191C43.5449 92.1602 42.5684 91.4912 41.748 90.6123C40.9375 89.7334 40.3125 88.6592 39.873 87.3896C39.4336 86.1104 39.2139 84.6504 39.2139 83.0098V81.6768C39.2139 80.0361 39.4238 78.5762 39.8438 77.2969C40.2734 76.0176 40.8838 74.9385 41.6748 74.0596C42.4658 73.1807 43.4082 72.5117 44.502 72.0527C45.5957 71.5938 46.8115 71.3643 48.1494 71.3643C50.0049 71.3643 51.5283 71.667 52.7197 72.2725C53.9111 72.8682 54.8193 73.6982 55.4443 74.7627C56.0791 75.8174 56.4697 77.0283 56.6162 78.3955H52.3535C52.2461 77.6729 52.041 77.043 51.7383 76.5059C51.4355 75.9688 51.001 75.5488 50.4346 75.2461C49.8779 74.9434 49.1553 74.792 48.2666 74.792C47.5342 74.792 46.8799 74.9434 46.3037 75.2461C45.7373 75.5391 45.2588 75.9736 44.8682 76.5498C44.4775 77.126 44.1797 77.8389 43.9746 78.6885C43.7695 79.5381 43.667 80.5244 43.667 81.6475V83.0098C43.667 84.123 43.7744 85.1094 43.9893 85.9688C44.2041 86.8184 44.5215 87.5361 44.9414 88.1221C45.3711 88.6982 45.8984 89.1328 46.5234 89.4258C47.1484 89.7188 47.876 89.8652 48.7061 89.8652C49.3994 89.8652 49.9756 89.8066 50.4346 89.6895C50.9033 89.5723 51.2793 89.4307 51.5625 89.2646C51.8555 89.0889 52.0801 88.9229 52.2363 88.7666V84.9873H48.2227V81.8525H56.6309ZM77.6953 81.8379V82.8486C77.6953 84.4697 77.4756 85.9248 77.0361 87.2139C76.5967 88.5029 75.9766 89.6016 75.1758 90.5098C74.375 91.4082 73.418 92.0967 72.3047 92.5752C71.2012 93.0537 69.9756 93.293 68.6279 93.293C67.29 93.293 66.0645 93.0537 64.9512 92.5752C63.8477 92.0967 62.8906 91.4082 62.0801 90.5098C61.2695 89.6016 60.6396 88.5029 60.1904 87.2139C59.751 85.9248 59.5312 84.4697 59.5312 82.8486V81.8379C59.5312 80.207 59.751 78.752 60.1904 77.4727C60.6299 76.1836 61.25 75.085 62.0508 74.1768C62.8613 73.2686 63.8184 72.5752 64.9219 72.0967C66.0352 71.6182 67.2607 71.3789 68.5986 71.3789C69.9463 71.3789 71.1719 71.6182 72.2754 72.0967C73.3887 72.5752 74.3457 73.2686 75.1465 74.1768C75.957 75.085 76.582 76.1836 77.0215 77.4727C77.4707 78.752 77.6953 80.207 77.6953 81.8379ZM73.2568 82.8486V81.8086C73.2568 80.6758 73.1543 79.6797 72.9492 78.8203C72.7441 77.9609 72.4414 77.2383 72.041 76.6523C71.6406 76.0664 71.1523 75.627 70.5762 75.334C70 75.0312 69.3408 74.8799 68.5986 74.8799C67.8564 74.8799 67.1973 75.0312 66.6211 75.334C66.0547 75.627 65.5713 76.0664 65.1709 76.6523C64.7803 77.2383 64.4824 77.9609 64.2773 78.8203C64.0723 79.6797 63.9697 80.6758 63.9697 81.8086V82.8486C63.9697 83.9717 64.0723 84.9678 64.2773 85.8369C64.4824 86.6963 64.7852 87.4238 65.1855 88.0195C65.5859 88.6055 66.0742 89.0498 66.6504 89.3525C67.2266 89.6553 67.8857 89.8066 68.6279 89.8066C69.3701 89.8066 70.0293 89.6553 70.6055 89.3525C71.1816 89.0498 71.665 88.6055 72.0557 88.0195C72.4463 87.4238 72.7441 86.6963 72.9492 85.8369C73.1543 84.9678 73.2568 83.9717 73.2568 82.8486ZM91.9629 87.4189C91.9629 87.0381 91.9043 86.6963 91.7871 86.3936C91.6797 86.0811 91.4746 85.7979 91.1719 85.5439C90.8691 85.2803 90.4443 85.0215 89.8975 84.7676C89.3506 84.5137 88.6426 84.25 87.7734 83.9766C86.8066 83.6641 85.8887 83.3125 85.0195 82.9219C84.1602 82.5312 83.3984 82.0771 82.7344 81.5596C82.0801 81.0322 81.5625 80.4219 81.1816 79.7285C80.8105 79.0352 80.625 78.2295 80.625 77.3115C80.625 76.4229 80.8203 75.6172 81.2109 74.8945C81.6016 74.1621 82.1484 73.5371 82.8516 73.0195C83.5547 72.4922 84.3848 72.0869 85.3418 71.8037C86.3086 71.5205 87.3682 71.3789 88.5205 71.3789C90.0928 71.3789 91.4648 71.6621 92.6367 72.2285C93.8086 72.7949 94.7168 73.5713 95.3613 74.5576C96.0156 75.5439 96.3428 76.6719 96.3428 77.9414H91.9775C91.9775 77.3164 91.8457 76.7695 91.582 76.3008C91.3281 75.8223 90.9375 75.4463 90.4102 75.1729C89.8926 74.8994 89.2383 74.7627 88.4473 74.7627C87.6855 74.7627 87.0508 74.8799 86.543 75.1143C86.0352 75.3389 85.6543 75.6465 85.4004 76.0371C85.1465 76.418 85.0195 76.8477 85.0195 77.3262C85.0195 77.6875 85.1074 78.0146 85.2832 78.3076C85.4688 78.6006 85.7422 78.874 86.1035 79.1279C86.4648 79.3818 86.9092 79.6211 87.4365 79.8457C87.9639 80.0703 88.5742 80.29 89.2676 80.5049C90.4297 80.8564 91.4502 81.252 92.3291 81.6914C93.2178 82.1309 93.96 82.624 94.5557 83.1709C95.1514 83.7178 95.6006 84.3379 95.9033 85.0312C96.2061 85.7246 96.3574 86.5107 96.3574 87.3896C96.3574 88.3174 96.1768 89.1475 95.8154 89.8799C95.4541 90.6123 94.9316 91.2324 94.248 91.7402C93.5645 92.248 92.749 92.6338 91.8018 92.8975C90.8545 93.1611 89.7949 93.293 88.623 93.293C87.5684 93.293 86.5283 93.1562 85.5029 92.8828C84.4775 92.5996 83.5449 92.1748 82.7051 91.6084C81.875 91.042 81.2109 90.3193 80.7129 89.4404C80.2148 88.5615 79.9658 87.5215 79.9658 86.3203H84.375C84.375 86.9844 84.4775 87.5459 84.6826 88.0049C84.8877 88.4639 85.1758 88.835 85.5469 89.1182C85.9277 89.4014 86.377 89.6064 86.8945 89.7334C87.4219 89.8604 87.998 89.9238 88.623 89.9238C89.3848 89.9238 90.0098 89.8164 90.498 89.6016C90.9961 89.3867 91.3623 89.0889 91.5967 88.708C91.8408 88.3271 91.9629 87.8975 91.9629 87.4189ZM113.364 93H108.721L108.75 89.5723H113.364C114.517 89.5723 115.488 89.3135 116.279 88.7959C117.07 88.2686 117.666 87.502 118.066 86.4961C118.477 85.4902 118.682 84.2744 118.682 82.8486V81.8086C118.682 80.7148 118.564 79.7529 118.33 78.9229C118.105 78.0928 117.769 77.3945 117.319 76.8281C116.87 76.2617 116.318 75.8369 115.664 75.5537C115.01 75.2607 114.258 75.1143 113.408 75.1143H108.633V71.6719H113.408C114.834 71.6719 116.138 71.916 117.319 72.4043C118.511 72.8828 119.541 73.5713 120.41 74.4697C121.279 75.3682 121.948 76.4424 122.417 77.6924C122.896 78.9326 123.135 80.3145 123.135 81.8379V82.8486C123.135 84.3623 122.896 85.7441 122.417 86.9941C121.948 88.2441 121.279 89.3184 120.41 90.2168C119.551 91.1055 118.521 91.7939 117.319 92.2822C116.128 92.7607 114.81 93 113.364 93ZM111.211 71.6719V93H106.816V71.6719H111.211ZM143.848 81.8379V82.8486C143.848 84.4697 143.628 85.9248 143.188 87.2139C142.749 88.5029 142.129 89.6016 141.328 90.5098C140.527 91.4082 139.57 92.0967 138.457 92.5752C137.354 93.0537 136.128 93.293 134.78 93.293C133.442 93.293 132.217 93.0537 131.104 92.5752C130 92.0967 129.043 91.4082 128.232 90.5098C127.422 89.6016 126.792 88.5029 126.343 87.2139C125.903 85.9248 125.684 84.4697 125.684 82.8486V81.8379C125.684 80.207 125.903 78.752 126.343 77.4727C126.782 76.1836 127.402 75.085 128.203 74.1768C129.014 73.2686 129.971 72.5752 131.074 72.0967C132.188 71.6182 133.413 71.3789 134.751 71.3789C136.099 71.3789 137.324 71.6182 138.428 72.0967C139.541 72.5752 140.498 73.2686 141.299 74.1768C142.109 75.085 142.734 76.1836 143.174 77.4727C143.623 78.752 143.848 80.207 143.848 81.8379ZM139.409 82.8486V81.8086C139.409 80.6758 139.307 79.6797 139.102 78.8203C138.896 77.9609 138.594 77.2383 138.193 76.6523C137.793 76.0664 137.305 75.627 136.729 75.334C136.152 75.0312 135.493 74.8799 134.751 74.8799C134.009 74.8799 133.35 75.0312 132.773 75.334C132.207 75.627 131.724 76.0664 131.323 76.6523C130.933 77.2383 130.635 77.9609 130.43 78.8203C130.225 79.6797 130.122 80.6758 130.122 81.8086V82.8486C130.122 83.9717 130.225 84.9678 130.43 85.8369C130.635 86.6963 130.938 87.4238 131.338 88.0195C131.738 88.6055 132.227 89.0498 132.803 89.3525C133.379 89.6553 134.038 89.8066 134.78 89.8066C135.522 89.8066 136.182 89.6553 136.758 89.3525C137.334 89.0498 137.817 88.6055 138.208 88.0195C138.599 87.4238 138.896 86.6963 139.102 85.8369C139.307 84.9678 139.409 83.9717 139.409 82.8486ZM162.832 83.6396H157.354L157.324 80.6221H161.924C162.734 80.6221 163.398 80.5195 163.916 80.3145C164.434 80.0996 164.819 79.792 165.073 79.3916C165.337 78.9814 165.469 78.4834 165.469 77.8975C165.469 77.2334 165.342 76.6963 165.088 76.2861C164.844 75.876 164.458 75.5781 163.931 75.3926C163.413 75.207 162.744 75.1143 161.924 75.1143H158.877V93H154.482V71.6719H161.924C163.164 71.6719 164.272 71.7891 165.249 72.0234C166.235 72.2578 167.07 72.6143 167.754 73.0928C168.438 73.5713 168.96 74.1768 169.321 74.9092C169.683 75.6318 169.863 76.4912 169.863 77.4873C169.863 78.3662 169.663 79.1768 169.263 79.9189C168.872 80.6611 168.252 81.2666 167.402 81.7354C166.562 82.2041 165.464 82.4629 164.106 82.5117L162.832 83.6396ZM162.642 93H156.152L157.866 89.5723H162.642C163.413 89.5723 164.043 89.4502 164.531 89.2061C165.02 88.9521 165.381 88.6104 165.615 88.1807C165.85 87.751 165.967 87.2578 165.967 86.7012C165.967 86.0762 165.859 85.5342 165.645 85.0752C165.439 84.6162 165.107 84.2646 164.648 84.0205C164.189 83.7666 163.584 83.6396 162.832 83.6396H158.599L158.628 80.6221H163.901L164.912 81.8086C166.211 81.7891 167.256 82.0186 168.047 82.4971C168.848 82.9658 169.429 83.5762 169.79 84.3281C170.161 85.0801 170.347 85.8857 170.347 86.7451C170.347 88.1123 170.049 89.2646 169.453 90.2021C168.857 91.1299 167.983 91.8281 166.831 92.2969C165.688 92.7656 164.292 93 162.642 93ZM173.643 71.6719H181.597C183.228 71.6719 184.629 71.916 185.801 72.4043C186.982 72.8926 187.891 73.6152 188.525 74.5723C189.16 75.5293 189.478 76.7061 189.478 78.1025C189.478 79.2451 189.282 80.2266 188.892 81.0469C188.511 81.8574 187.969 82.5361 187.266 83.083C186.572 83.6201 185.757 84.0498 184.819 84.3721L183.428 85.1045H176.514L176.484 81.6768H181.626C182.397 81.6768 183.037 81.54 183.545 81.2666C184.053 80.9932 184.434 80.6123 184.688 80.124C184.951 79.6357 185.083 79.0693 185.083 78.4248C185.083 77.7412 184.956 77.1504 184.702 76.6523C184.448 76.1543 184.062 75.7734 183.545 75.5098C183.027 75.2461 182.378 75.1143 181.597 75.1143H178.037V93H173.643V71.6719ZM185.566 93L180.703 83.4932L185.347 83.4639L190.269 92.7949V93H185.566ZM201.533 75.3193L195.732 93H191.06L198.984 71.6719H201.958L201.533 75.3193ZM206.353 93L200.537 75.3193L200.068 71.6719H203.071L211.04 93H206.353ZM206.089 85.0605V88.5029H194.824V85.0605H206.089ZM224.121 87.4189C224.121 87.0381 224.062 86.6963 223.945 86.3936C223.838 86.0811 223.633 85.7979 223.33 85.5439C223.027 85.2803 222.603 85.0215 222.056 84.7676C221.509 84.5137 220.801 84.25 219.932 83.9766C218.965 83.6641 218.047 83.3125 217.178 82.9219C216.318 82.5312 215.557 82.0771 214.893 81.5596C214.238 81.0322 213.721 80.4219 213.34 79.7285C212.969 79.0352 212.783 78.2295 212.783 77.3115C212.783 76.4229 212.979 75.6172 213.369 74.8945C213.76 74.1621 214.307 73.5371 215.01 73.0195C215.713 72.4922 216.543 72.0869 217.5 71.8037C218.467 71.5205 219.526 71.3789 220.679 71.3789C222.251 71.3789 223.623 71.6621 224.795 72.2285C225.967 72.7949 226.875 73.5713 227.52 74.5576C228.174 75.5439 228.501 76.6719 228.501 77.9414H224.136C224.136 77.3164 224.004 76.7695 223.74 76.3008C223.486 75.8223 223.096 75.4463 222.568 75.1729C222.051 74.8994 221.396 74.7627 220.605 74.7627C219.844 74.7627 219.209 74.8799 218.701 75.1143C218.193 75.3389 217.812 75.6465 217.559 76.0371C217.305 76.418 217.178 76.8477 217.178 77.3262C217.178 77.6875 217.266 78.0146 217.441 78.3076C217.627 78.6006 217.9 78.874 218.262 79.1279C218.623 79.3818 219.067 79.6211 219.595 79.8457C220.122 80.0703 220.732 80.29 221.426 80.5049C222.588 80.8564 223.608 81.252 224.487 81.6914C225.376 82.1309 226.118 82.624 226.714 83.1709C227.31 83.7178 227.759 84.3379 228.062 85.0312C228.364 85.7246 228.516 86.5107 228.516 87.3896C228.516 88.3174 228.335 89.1475 227.974 89.8799C227.612 90.6123 227.09 91.2324 226.406 91.7402C225.723 92.248 224.907 92.6338 223.96 92.8975C223.013 93.1611 221.953 93.293 220.781 93.293C219.727 93.293 218.687 93.1562 217.661 92.8828C216.636 92.5996 215.703 92.1748 214.863 91.6084C214.033 91.042 213.369 90.3193 212.871 89.4404C212.373 88.5615 212.124 87.5215 212.124 86.3203H216.533C216.533 86.9844 216.636 87.5459 216.841 88.0049C217.046 88.4639 217.334 88.835 217.705 89.1182C218.086 89.4014 218.535 89.6064 219.053 89.7334C219.58 89.8604 220.156 89.9238 220.781 89.9238C221.543 89.9238 222.168 89.8164 222.656 89.6016C223.154 89.3867 223.521 89.0889 223.755 88.708C223.999 88.3271 224.121 87.8975 224.121 87.4189ZM236.177 71.6719V93H231.797V71.6719H236.177ZM254.004 89.5723V93H243.267V89.5723H254.004ZM244.688 71.6719V93H240.293V71.6719H244.688Z" fill="url(#paint0_linear_122_251)"/>
<defs>
<linearGradient id="paint0_linear_122_251" x1="127.5" y1="26" x2="127.5" y2="102" gradientUnits="userSpaceOnUse">
<stop stop-color="white"/>
<stop offset="1" stop-color="#D9D9D9" stop-opacity="0.8"/>
</linearGradient>
</defs>
</svg>
